<?xml version="1.0" encoding="utf-8"?>
<!-- Generator: Adobe Illustrator 21.0.2, SVG Export Plug-In . SVG Version: 6.00 Build 0)  -->
<svg version="1.1" id="Layer_1" xmlns="http://www.w3.org/2000/svg" xmlns:xlink="http://www.w3.org/1999/xlink" x="0px" y="0px"
	 viewBox="0 0 200 200" style="enable-background:new 0 0 200 200;" xml:space="preserve">
<style type="text/css">
	.st0{fill:#FFFFFF;}
	.st1{fill:url(#SVGID_1_);}
	.st2{fill:url(#SVGID_2_);}
</style>
<g>
	<path class="st0" d="M131.6,2.4V2H34.7c-12.7,0-23,10.3-23,23v75.8h14.4V84.1c0-4.7,3.9-8.6,8.6-8.6h51.1c4.7,0,8.6,3.9,8.6,8.6
		V115H34.7c-12.7,0-23,10.3-23,23v38c0,12.7,10.3,23,23,23h51.1c12.7,0,23-10.3,23-23v-46.8h15.7c35,0,63.6-28.6,63.6-63.6
		C188.3,32.9,163.4,5.9,131.6,2.4z M124.7,114.8H109V84.1c0-12.7-10.3-23-23-23H34.7c-3,0-5.8,0.6-8.6,1.7V25c0-4.7,3.9-8.6,8.6-8.6
		h90c27.1,0,49.2,22.1,49.2,49.2S151.8,114.8,124.7,114.8z M94.4,175.8c0,4.7-3.9,8.6-8.6,8.6H34.7c-4.7,0-8.6-3.9-8.6-8.6v-38
		c0-4.7,3.9-8.6,8.6-8.6h59.7L94.4,175.8z"/>
	<linearGradient id="SVGID_1_" gradientUnits="userSpaceOnUse" x1="80.0084" y1="122.0488" x2="123.3113" y2="122.1301">
		<stop  offset="0" style="stop-color:#FFFFFF"/>
		<stop  offset="0.5216" style="stop-color:#3949AB;stop-opacity:0.44"/>
		<stop  offset="1" style="stop-color:#FFFFFF;stop-opacity:0"/>
	</linearGradient>
	<rect x="79.9" y="115" class="st1" width="43.6" height="14.2"/>
	<rect x="94.4" y="105.2" class="st0" width="14.7" height="31.4"/>
	<linearGradient id="SVGID_2_" gradientUnits="userSpaceOnUse" x1="18.9674" y1="52.9837" x2="18.4711" y2="85.4917">
		<stop  offset="0" style="stop-color:#FFFFFF"/>
		<stop  offset="1" style="stop-color:#3949AB;stop-opacity:0"/>
	</linearGradient>
	<path class="st2" d="M11.7,52.7v32.6c0-9.9,5.9-18.5,14.4-22.4V52.7H11.7z"/>
</g>
</svg>
