<?xml version="1.0" encoding="utf-8"?>
<!-- Generator: Adobe Illustrator 21.0.2, SVG Export Plug-In . SVG Version: 6.00 Build 0)  -->
<svg version="1.1" id="Layer_1" xmlns="http://www.w3.org/2000/svg" xmlns:xlink="http://www.w3.org/1999/xlink" x="0px" y="0px"
	 viewBox="0 0 200 200" style="enable-background:new 0 0 200 200;" xml:space="preserve">
<style type="text/css">
	.st0{fill:#3949AB;}
	.st1{fill:url(#SVGID_1_);}
	.st2{fill:url(#SVGID_2_);}
</style>
<path class="st0" d="M131.3,2.4V2H34.9C22.3,2,12,12.3,12,24.9v75.5h14.3V83.6c0-4.7,3.8-8.5,8.5-8.5h50.9c4.7,0,8.5,3.8,8.5,8.5
	v30.8H34.9c-12.6,0-22.9,10.3-22.9,22.9v37.8c0,12.6,10.3,22.9,22.9,22.9h50.9c12.6,0,22.9-10.3,22.9-22.9v-46.6h15.6
	c34.8,0,63.3-28.4,63.3-63.3C187.7,32.8,162.9,5.8,131.3,2.4z M124.5,114.2h-15.6V83.6c0-12.6-10.3-22.9-22.9-22.9H34.9
	c-3,0-5.8,0.6-8.5,1.7V24.9c0-4.7,3.8-8.5,8.5-8.5h89.6c26.9,0,48.9,22,48.9,48.9S151.4,114.2,124.5,114.2z M94.3,174.9
	c0,4.7-3.8,8.5-8.5,8.5H34.9c-4.7,0-8.5-3.8-8.5-8.5v-37.8c0-4.7,3.8-8.5,8.5-8.5h59.4L94.3,174.9z"/>
<linearGradient id="SVGID_1_" gradientUnits="userSpaceOnUse" x1="80.0101" y1="121.4395" x2="123.0932" y2="121.5203">
	<stop  offset="0" style="stop-color:#3949AB"/>
	<stop  offset="1" style="stop-color:#FFFFFF;stop-opacity:0"/>
</linearGradient>
<rect x="79.9" y="114.4" class="st1" width="43.3" height="14.2"/>
<rect x="94.3" y="104.6" class="st0" width="14.7" height="31.2"/>
<linearGradient id="SVGID_2_" gradientUnits="userSpaceOnUse" x1="19.279" y1="52.7249" x2="18.7852" y2="85.0679">
	<stop  offset="0" style="stop-color:#3949AB;stop-opacity:0"/>
	<stop  offset="1" style="stop-color:#FFFFFF"/>
</linearGradient>
<path class="st2" d="M12,52.4v32.4c0-9.9,5.9-18.4,14.3-22.3V52.4H12z"/>
</svg>
