<?xml version="1.0" encoding="utf-8"?>
<!-- Generator: Adobe Illustrator 21.0.2, SVG Export Plug-In . SVG Version: 6.00 Build 0)  -->
<svg version="1.1" id="Layer_1" xmlns="http://www.w3.org/2000/svg" xmlns:xlink="http://www.w3.org/1999/xlink" x="0px" y="0px"
	 viewBox="0 0 587 200" style="enable-background:new 0 0 587 200;" xml:space="preserve">
<style type="text/css">
	.st0{fill:#3949AB;}
	.st1{fill:url(#SVGID_1_);}
	.st2{fill:url(#SVGID_2_);}
</style>
<path class="st0" d="M131.3,2.4V2H34.9C22.3,2,12,12.3,12,24.9v75.5h14.3V83.6c0-4.7,3.8-8.5,8.5-8.5h50.9c4.7,0,8.5,3.8,8.5,8.5
	v30.8H34.9c-12.6,0-22.9,10.3-22.9,22.9v37.8c0,12.6,10.3,22.9,22.9,22.9h50.9c12.6,0,22.9-10.3,22.9-22.9v-46.6h15.6
	c34.8,0,63.3-28.4,63.3-63.3C187.7,32.8,162.9,5.8,131.3,2.4z M124.5,114.2h-15.6V83.6c0-12.6-10.3-22.9-22.9-22.9H34.9
	c-3,0-5.8,0.6-8.5,1.7V24.9c0-4.7,3.8-8.5,8.5-8.5h89.6c26.9,0,48.9,22,48.9,48.9S151.4,114.2,124.5,114.2z M94.3,174.9
	c0,4.7-3.8,8.5-8.5,8.5H34.9c-4.7,0-8.5-3.8-8.5-8.5v-37.8c0-4.7,3.8-8.5,8.5-8.5h59.4V174.9z"/>
<linearGradient id="SVGID_1_" gradientUnits="userSpaceOnUse" x1="80.01" y1="78.526" x2="123.0931" y2="78.4452" gradientTransform="matrix(1 0 0 -1 0 200)">
	<stop  offset="0" style="stop-color:#3949AB"/>
	<stop  offset="1" style="stop-color:#FFFFFF;stop-opacity:0"/>
</linearGradient>
<rect x="79.9" y="114.4" class="st1" width="43.3" height="14.2"/>
<rect x="94.3" y="104.6" class="st0" width="14.7" height="31.2"/>
<linearGradient id="SVGID_2_" gradientUnits="userSpaceOnUse" x1="19.2222" y1="147.276" x2="18.7284" y2="114.933" gradientTransform="matrix(1 0 0 -1 0 200)">
	<stop  offset="0" style="stop-color:#3949AB;stop-opacity:0"/>
	<stop  offset="1" style="stop-color:#FFFFFF"/>
</linearGradient>
<path class="st2" d="M12,52.4v32.4c0-9.9,5.9-18.4,14.3-22.3V52.4H12z"/>
<image style="display:none;overflow:visible;" width="386" height="92" xlink:href="find_font.jpg"  transform="matrix(1.1062 0 0 1.1062 119 37)">
</image>
<g>
	<path class="st0" d="M208.7,85.9V52.4h6.6v33.5H208.7z"/>
	<path class="st0" d="M270.1,85.9h-6.8l-2.6-4.4c-2,1.1-4.4,1.7-6.9,1.7h-2.2v2.7h-6.6V52.4h4.8h1.8h2.2c8.5,0,15.4,6.9,15.4,15.4
		c0,3.9-1.5,7.4-3.8,10.1L270.1,85.9z M253.8,77.2c5.1,0,9.3-4.2,9.3-9.4c0-5.1-4.2-9.3-9.3-9.3h-2.2v18.8H253.8z"/>
	<path class="st0" d="M391.5,52.4v31.4v2H385h-0.1v-2.7v-0.3l-14.5-19.5v0.8v21.7h-6.6V52.4h6.6l14.5,19.5v-0.4v-19H391.5z"/>
	<path class="st0" d="M450.7,52.4v33.5h-6.6v-2.7h-15.4v2.7h-6.6V52.4h6.6v24.2h15.4V52.4H450.7z"/>
	<polygon class="st0" points="320.8,52.4 314.2,52.4 300.8,85.9 307.3,85.9 317.5,60.7 327.6,85.9 334.2,85.9 	"/>
	<polygon class="st0" points="502.4,52.4 495.8,52.4 482.4,85.9 489,85.9 499.1,60.7 509.3,85.9 515.9,85.9 	"/>
</g>
<g>
	<path class="st0" d="M170.8,141.8v31.4v2h-6.5h-0.1v-2.7v-0.3l-14.5-19.5v0.8v21.7h-6.6v-33.5h6.6l14.5,19.5v-0.4v-19H170.8z"/>
	<path class="st0" d="M287.1,168.7v6.6h-16.1h-6.6v-6.6v-26.9h6.6v26.9H287.1z"/>
	<path class="st0" d="M349.8,141.8l-12.4,28.2v5.4h-6.6v-5.4l-12.5-28.2h6.6l9.2,20.7l9.2-20.7H349.8z"/>
	<path class="st0" d="M403,148.4h-9.8v26.9h-6.6v-26.9h-9.8v-6.6H403V148.4z"/>
	<path class="st0" d="M434.5,175.3v-33.5h6.6v33.5H434.5z"/>
	<path class="st0" d="M502,166.9c-2.9,5.1-8.3,8.4-14.5,8.4c-9.3,0-16.8-7.5-16.8-16.8s7.5-16.8,16.8-16.8c6.1,0,11.5,3.3,14.4,8.3
		l-5.1,3.5c-1.8-3.3-5.2-5.5-9.3-5.5c-5.8,0-10.6,4.7-10.6,10.6c0,5.8,4.7,10.6,10.6,10.6c4,0,7.4-2.2,9.2-5.4L502,166.9z"/>
	<path class="st0" d="M553.4,165.9c0,6.1-4.8,9.4-11.1,9.4c-5.4,0-9.1-2.2-11.3-5.2l5-4c1.3,1.9,3.1,3.3,6.1,3.3
		c2.8,0,4.6-1.4,4.6-3.3c0-2.3-1.9-3.1-4.9-4.5l-1.7-0.7c-4.9-2.1-8.1-4.7-8.1-10.2c0-5.1,3.8-8.9,9.9-8.9c3.8,0,6.7,1.2,8.8,4.2
		l-4.8,4c-1.1-1.7-2.2-2.3-4-2.3c-2,0-3.3,1.3-3.3,2.9c0,2,1.3,2.8,4.2,4.1l1.7,0.7C550.2,157.8,553.4,160.3,553.4,165.9z"/>
	<polygon class="st0" points="221.5,141.8 214.9,141.8 201.4,175.3 208,175.3 218.1,150.1 228.3,175.3 234.9,175.3 	"/>
</g>
</svg>
