<?xml version="1.0" encoding="UTF-8" standalone="no"?>
<!DOCTYPE svg PUBLIC "-//W3C//DTD SVG 1.1//EN" "http://www.w3.org/Graphics/SVG/1.1/DTD/svg11.dtd">
<svg>
<metadata>
Created by FontForge 20120731 at Thu Jul  6 14:53:51 2017
 By www
Copyright (c) Ray Larabie 2006. Do not distribute. Report piracy to piracy@typodermic.com. Visit www.typodermic.com and www.larabiefonts.com
</metadata>
<defs>
<font id="Hybrea-Bold" horiz-adv-x="553">
  <font-face font-family="Hybrea" font-weight="700" font-stretch="normal" units-per-em="1000" panose-1="2 0 8 3 4 0 0 2 0 4" ascent="800" descent="-200" x-height="555" cap-height="762" bbox="-164 -212 1102 977" underline-thickness="50" underline-position="-75" unicode-range="U+0020-FB04"/>
<missing-glyph horiz-adv-x="722" d="M692 385q0 -108 -22.5 -184t-65 -124t-104 -69.5t-139.5 -21.5q-92 0 -155 23t-102 70.5t-56.5 121t-17.5 175.5q0 108 22.5 184t65 124t104 69.5t139.5 21.5q91 0 154.5 -23t102.5 -70.5t56.5 -121t17.5 -175.5zM113 375q0 -99 14.5 -161t44.5 -96t77 -46t112 -12 q60 0 106 16.5t77.5 54.5t48 100.5t16.5 154.5q0 99 -14.5 161t-44.5 96t-77 46t-112 12q-60 0 -106.5 -16.5t-78 -54.5t-47.5 -100.5t-16 -154.5z"/>
    <glyph glyph-name=".notdef" horiz-adv-x="722" d="M692 385q0 -108 -22.5 -184t-65 -124t-104 -69.5t-139.5 -21.5q-92 0 -155 23t-102 70.5t-56.5 121t-17.5 175.5q0 108 22.5 184t65 124t104 69.5t139.5 21.5q91 0 154.5 -23t102.5 -70.5t56.5 -121t17.5 -175.5zM113 375q0 -99 14.5 -161t44.5 -96t77 -46t112 -12 q60 0 106 16.5t77.5 54.5t48 100.5t16.5 154.5q0 99 -14.5 161t-44.5 96t-77 46t-112 12q-60 0 -106.5 -16.5t-78 -54.5t-47.5 -100.5t-16 -154.5z"/>
    <glyph glyph-name="Eth" unicode="Ð" horiz-adv-x="692" d="M50 754q54 11 114.5 15.5t126.5 4.5q105 0 176 -17t114.5 -61t62 -119.5t18.5 -191.5q0 -87 -13.5 -150t-41 -105.5t-68.5 -68t-95.5 -39.5t-122.5 -18t-149 -4h-122v754zM496 385q0 82 -11 132.5t-34.5 79t-58.5 38.5t-83 10q-21 0 -44.5 -2t-46.5 -4v-182l164 -42v-62 l-164 -43v-180q63 0 114.5 5.5t88 30.5t56 76t19.5 143z"/>
    <glyph glyph-name="eth" unicode="ð" horiz-adv-x="586" d="M377 523q-6 34 -21 65t-35.5 56.5t-45 45t-49.5 29.5l57 74q55 -18 105 -56.5t87 -99t59 -143.5t22 -189q0 -72 -15 -129.5t-47 -98t-82.5 -62.5t-121.5 -22q-138 0 -199 72t-61 215q0 44 8.5 93.5t30 91.5t59.5 69.5t97 27.5q104 0 152 -39zM390 250q0 100 -20 168 q-20 9 -43 14.5t-51 5.5t-45 -9.5t-26.5 -29.5t-13 -51t-3.5 -74q0 -35 4 -64.5t14.5 -50.5t28.5 -33t47 -12q28 0 48.5 6.5t33.5 22t19.5 42t6.5 65.5z"/>
    <glyph glyph-name="Lslash" unicode="Ł" horiz-adv-x="500" d="M218 221q0 -48 20.5 -68.5t56.5 -20.5q55 0 98.5 3t75.5 8q5 -34 8 -68t8 -69q-34 -4 -94 -8.5t-126 -4.5q-48 0 -88 10t-68 38.5t-43.5 79.5t-15.5 132v509h168v-289l134 58l18 -118l-152 -67v-125z"/>
    <glyph glyph-name="lslash" unicode="ł" horiz-adv-x="256" d="M48 316l-52 -22v124l52 23v350h160v-279l55 25v-124l-55 -25v-388h-160v316z"/>
    <glyph glyph-name="Scaron" unicode="Š" horiz-adv-x="583" d="M517 620q-51 8 -98 13.5t-95 5.5q-39 0 -71 -5t-63 -19v-56q0 -23 14 -35.5t36 -20t50 -12t57 -10.5q58 -12 97.5 -28t63.5 -45t34.5 -76t10.5 -121q0 -72 -21 -116t-58.5 -68t-90.5 -32t-116 -8q-72 0 -127.5 3.5t-106.5 8.5l15 147q54 -10 100.5 -15.5t98.5 -5.5 q16 0 31.5 1.5t27.5 6.5q45 6 64 24.5t19 57.5q0 26 -5 42.5t-18 27t-35.5 18t-57.5 15.5q-47 10 -91 22.5t-78 37t-54 65t-20 107.5v149q104 76 285 76q54 0 106 -4.5t103 -10.5zM179 976l115 -83l111 83l48 -48l-120 -108h-80l-123 108z"/>
    <glyph glyph-name="scaron" unicode="š" horiz-adv-x="491" d="M421 418q-40 13 -84 20t-80 7q-27 0 -47.5 -5t-31.5 -11q0 -17 1.5 -29t8.5 -20.5t19.5 -15t35.5 -12.5q48 -13 88.5 -23t69 -27t44.5 -46t16 -80q0 -60 -18 -97t-50 -57.5t-77 -27.5t-100 -7q-49 0 -94 5t-88 15l13 126q39 -11 81 -16.5t82 -5.5q19 0 38 1.5t34 7 t24.5 16.5t9.5 31q0 14 -5.5 23.5t-19.5 16t-38.5 12t-61.5 11.5q-59 13 -91 33.5t-48 53t-19 77.5t-3 106q32 27 90.5 48t136.5 21q39 0 86 -6.5t86 -19.5zM133 769l115 -83l111 83l48 -48l-120 -108h-80l-123 108z"/>
    <glyph glyph-name="Yacute" unicode="Ý" horiz-adv-x="647" d="M186 762q20 -94 44 -186.5t56 -188.5h77q32 96 55.5 188.5t43.5 186.5h176q-48 -196 -110.5 -386.5t-137.5 -375.5h-177q32 66 61.5 132.5t49.5 132.5h-160q-49 121 -86.5 244.5t-69.5 252.5h178zM455 879l-246 -69l-18 70l234 97z"/>
    <glyph glyph-name="yacute" unicode="ý" horiz-adv-x="568" d="M176 555q11 -103 27.5 -198t35.5 -192h67q29 91 52.5 191t38.5 199h164q-26 -130 -55 -241t-65 -205t-81 -172.5t-103 -144.5l-115 68q38 38 67 85t50 99h-147q-33 131 -58.5 256.5t-44.5 254.5h167v0zM416 672l-246 -69l-18 70l234 97z"/>
    <glyph glyph-name="Thorn" unicode="Þ" horiz-adv-x="634" d="M50 762h168v-142q27 4 61.5 5.5t74.5 1.5q58 0 105 -6.5t80.5 -28.5t51.5 -65t18 -115q0 -83 -12 -135.5t-43 -82t-84.5 -40.5t-136.5 -11h-115v-143h-168v762zM361 498q-46 0 -79.5 -3t-63.5 -8v-225h111q32 0 54 3t35.5 15t19.5 35t6 64q0 60 -18.5 89.5t-64.5 29.5z "/>
    <glyph glyph-name="thorn" unicode="þ" d="M50 791h160v-243q23 11 54 16t79 5q52 0 87 -17t55.5 -52t29 -87.5t8.5 -124.5q0 -80 -11.5 -137t-38 -93.5t-70.5 -54t-108 -17.5q-29 0 -48.5 1.5t-37.5 3.5v-189h-159v989zM306 444q-37 0 -56.5 -6.5t-41.5 -17.5v-303q30 -10 72 -10q26 0 43 12.5t26.5 35.5 t13.5 55.5t4 72.5q0 78 -14 119.5t-47 41.5z"/>
    <glyph glyph-name="nonmarkingreturn" horiz-adv-x="446"/>
    <glyph glyph-name="Zcaron" unicode="Ž" horiz-adv-x="587" d="M36 762h508l-19 -109l-275 -499h317v-154h-537l18 110l277 497h-289v155zM181 976l115 -83l111 83l48 -48l-120 -108h-80l-123 108z"/>
    <glyph glyph-name="zcaron" unicode="ž" horiz-adv-x="482" d="M28 555h431l-19 -86l-218 -336h247v-133h-456l19 86l213 334h-217v135zM128 769l115 -83l111 83l48 -48l-120 -108h-80l-123 108z"/>
    <glyph glyph-name="onehalf" unicode="½" horiz-adv-x="994" d="M226 269h-102v385l-57 -14l-17 95l103 26q60 -13 73 -62v-430zM295 0h-116l420 758h118zM927 -1q-38 -6 -74 -8.5t-68 -2.5q-63 0 -111 15t-75 36v97q0 39 16 67t41 46.5t54 29t55 15.5q39 8 58.5 20t19.5 42q0 22 -23.5 30.5t-52.5 8.5q-34 0 -65.5 -3t-68.5 -11l-9 99 q37 6 70.5 8.5t72.5 2.5q37 0 69.5 -4.5t56.5 -18.5t37.5 -39.5t13.5 -67.5t-13 -69.5t-32.5 -44.5t-43 -26t-45.5 -15q-62 -17 -87 -32t-25 -40v-41q17 -5 37.5 -7t44.5 -2q32 0 66.5 2.5t76.5 9.5z"/>
    <glyph glyph-name="onequarter" unicode="¼" horiz-adv-x="988" d="M226 269h-102v385l-57 -14l-17 95l103 26q60 -13 73 -62v-430zM294 0h-116l421 758h118zM837 122q-39 -3 -103 -3q-32 0 -57.5 6.5t-44.5 25t-29 51.5t-10 86v198h102v-226q0 -47 39 -47q34 0 60 0.5t43 2.5v270h101v-486h-101v122z"/>
    <glyph glyph-name="onesuperior" unicode="¹" horiz-adv-x="236" d="M206 269h-101v385l-57 -14l-18 95l104 26q60 -14 72 -62v-430z"/>
    <glyph glyph-name="threequarters" unicode="¾" horiz-adv-x="1064" d="M371 0h-116l420 758h118zM913 122q-20 -2 -46.5 -2.5t-56.5 -0.5q-32 0 -57.5 6.5t-44.5 25t-29 51.5t-10 86v198h102v-226q0 -47 39 -47q34 0 60 0.5t43 2.5v270h101v-486h-101v122zM225 670q-21 0 -38.5 -1t-34.5 -2.5t-35 -4.5t-39 -7l-8 95q36 7 73.5 10t79.5 3 q40 0 71 -6.5t51.5 -22.5t31 -44t10.5 -70q0 -29 -11 -52.5t-38 -43.5q36 -16 49.5 -43.5t13.5 -62.5q0 -42 -9 -72t-29 -49t-52.5 -27.5t-79.5 -8.5q-45 0 -87.5 3t-93.5 17l21 94q34 -9 70 -13t78 -4q18 0 32.5 1.5t25 8t16 19.5t5.5 36q0 35 -21 43.5t-66 8.5h-118v92 h116q43 0 62 7.5t19 39.5q0 29 -15 42.5t-50 13.5z"/>
    <glyph glyph-name="threesuperior" unicode="³" horiz-adv-x="411" d="M205 670q-21 0 -38.5 -1t-34.5 -2.5t-35 -4.5t-39 -7l-8 95q65 13 153 13q40 0 71 -6.5t51.5 -22.5t31 -44t10.5 -70q0 -29 -11 -52.5t-38 -43.5q35 -16 49 -43.5t14 -62.5q0 -42 -9 -72t-29 -49t-52.5 -27.5t-79.5 -8.5q-45 0 -87.5 3t-93.5 17l21 94q34 -9 69.5 -13 t77.5 -4q18 0 32.5 1.5t25 8t16.5 19.5t6 36q0 35 -21.5 43.5t-66.5 8.5h-117v92h115q44 0 63 7.5t19 39.5q0 56 -65 56z"/>
    <glyph glyph-name="twosuperior" unicode="²" horiz-adv-x="405" d="M359 272q-38 -6 -74.5 -8.5t-68.5 -2.5q-63 0 -111 14.5t-75 35.5v98q0 39 16 66.5t41 46t54 29.5t55 16q39 7 58.5 18.5t19.5 43.5q0 22 -23.5 30.5t-52.5 8.5q-34 0 -65.5 -3t-68.5 -12l-9 100q37 5 70.5 7.5t72.5 2.5q38 0 70.5 -4.5t56 -18.5t37 -39t13.5 -67 t-12.5 -69.5t-32 -44.5t-43.5 -26t-46 -15q-62 -17 -87 -32t-25 -40v-41q17 -5 38 -7t45 -2q32 0 66.5 2.5t76.5 8.5z"/>
    <glyph glyph-name="brokenbar" unicode="¦" horiz-adv-x="202" d="M50 251h102v-387h-102v387zM152 489h-102v352h102v-352z"/>
    <glyph glyph-name="minus" unicode="−" horiz-adv-x="562" d="M50 424h462v-90h-462v90z"/>
    <glyph glyph-name="multiply" unicode="×" horiz-adv-x="499" d="M449 510l-134 -135l128 -128l-63 -63l-128 128l-135 -134l-67 68l133 135l-129 130l62 63l131 -131l134 135z"/>
    <glyph glyph-name="RS" horiz-adv-x="270"/>
    <glyph glyph-name="US" horiz-adv-x="390"/>
    <glyph glyph-name="space" unicode=" " horiz-adv-x="290"/>
    <glyph glyph-name="exclam" unicode="!" horiz-adv-x="292" d="M50 780h192l-22 -552h-149zM64 133h165v-133h-165v133z"/>
    <glyph glyph-name="quotedbl" unicode="&quot;" horiz-adv-x="364" d="M217 774h132l-21 -257h-91zM15 774h131l-21 -257h-91z"/>
    <glyph glyph-name="numbersign" unicode="#" horiz-adv-x="627" d="M267 508l-20 -124h115l18 124h-113zM50 384h104l21 124h-106v84h117l25 166l90 -11l-23 -155h115l25 166l89 -12l-24 -154h94v-84h-104l-19 -124h104v-84h-116l-23 -161l-89 11l21 150h-114l-25 -161l-89 11l23 150h-96v84z"/>
    <glyph glyph-name="dollar" unicode="$" horiz-adv-x="513" d="M292 652q35 -2 69 -3.5t67 -5.5v-104q-69 12 -133 12q-28 0 -51 -2t-58 -7q-2 -7 -2 -13v-12q0 -19 3 -31t11 -19.5t22.5 -11.5t37.5 -7q30 -5 65.5 -13.5t66.5 -28t52 -53t21 -87.5q0 -44 -10 -72.5t-31 -46.5t-53.5 -27.5t-76.5 -15.5v-104h-80v101q-42 1 -81 3.5 t-75 7.5v104q46 -8 91 -10.5t88 -2.5q39 0 62 10t23 42q0 29 -11 41t-33 18t-53.5 11.5t-73.5 21.5q-30 12 -49.5 27.5t-30.5 37.5t-15 50t-4 65v35t1 44q35 18 72 28.5t89 17.5v106h80v-106z"/>
    <glyph glyph-name="percent" unicode="%" horiz-adv-x="813" d="M608 76q31 0 45 26.5t14 71.5q0 48 -14 74.5t-45 26.5q-32 0 -46.5 -26t-14.5 -74q0 -46 14 -72.5t47 -26.5zM208 489q31 0 45 26.5t14 71.5q0 46 -14 73t-45 27q-32 0 -46.5 -26.5t-14.5 -72.5t14.5 -72.5t46.5 -26.5zM215 0h-98l480 765h99zM50 588q0 86 37 133t121 47 q82 0 119 -46t37 -134q0 -85 -37 -133t-119 -48q-84 0 -121 49t-37 132zM448 174q0 87 37.5 134.5t121.5 47.5t120 -47t36 -135q0 -81 -37 -130t-119 -49q-84 0 -121.5 49t-37.5 130z"/>
    <glyph glyph-name="ampersand" unicode="&amp;" horiz-adv-x="634" d="M304 774q134 0 236 -18l-11 -129q-47 10 -92 15t-106 5q-64 0 -90 -25.5t-26 -76.5q0 -30 8 -48t25 -27.5t44 -12.5t65 -3h227v-432q-84 -24 -154 -29.5t-139 -5.5q-75 0 -125 13.5t-80 42t-43 72.5t-13 105q0 69 25.5 112.5t79.5 67.5q-45 24 -64.5 63t-19.5 93 q0 64 14 106t44.5 67t78.5 35t116 10zM198 228q0 -40 10 -62.5t27 -34t39 -14t46 -2.5q28 0 51.5 2t43.5 6v211q-52 0 -92.5 -2.5t-68 -13t-42 -32t-14.5 -58.5z"/>
    <glyph glyph-name="quotesingle" unicode="'" horiz-adv-x="166" d="M15 774h136l-21 -257h-96z"/>
    <glyph glyph-name="parenleft" unicode="(" horiz-adv-x="337" d="M276 796q-54 -88 -82 -202t-28 -240q0 -132 30.5 -243t90.5 -195l-95 -32q-78 88 -110 209t-32 262q0 131 28 253t99 219z"/>
    <glyph glyph-name="parenright" unicode=")" horiz-adv-x="338" d="M146 826q78 -88 110 -207.5t32 -260.5q0 -66 -6.5 -130.5t-21.5 -125t-40 -116t-61 -102.5l-98 31q54 91 81.5 202.5t27.5 239.5q0 132 -31 244t-89 193z"/>
    <glyph glyph-name="asterisk" unicode="*" horiz-adv-x="514" d="M79 667l141 -59l-12 150h99l-10 -151l138 59l29 -86l-146 -43l93 -110l-78 -58l-75 121l-81 -121l-76 57l97 110l-148 46z"/>
    <glyph glyph-name="plus" unicode="+" horiz-adv-x="562" d="M331 613v-189h181v-90h-181v-190h-97v190h-184v90h184v189h97z"/>
    <glyph glyph-name="comma" unicode="," horiz-adv-x="262" d="M65 138l167 -16q-30 -143 -108 -269l-94 10z"/>
    <glyph glyph-name="hyphen" unicode="-" horiz-adv-x="381" d="M50 348h281v-123h-281v123z"/>
    <glyph glyph-name="period" unicode="." horiz-adv-x="225" d="M30 133h165v-133h-165v133z"/>
    <glyph glyph-name="slash" unicode="/" horiz-adv-x="442" d="M432 783l-310 -808h-110l309 808h111z"/>
    <glyph glyph-name="zero" unicode="0" horiz-adv-x="669" d="M332 774q103 0 161 -22.5t86 -72t34 -128.5t6 -192q0 -114 -12 -186.5t-45.5 -114t-92.5 -57t-152 -15.5q-101 0 -158.5 24t-86 75t-35.5 129.5t-7 186.5q0 109 11.5 181t44 114.5t91.5 60t155 17.5zM448 395q0 75 -2.5 123t-14 76.5t-34.5 39.5t-63 11h-19 q-41 0 -64 -13.5t-34 -46t-13.5 -86.5t-2.5 -134q0 -75 2.5 -123.5t14 -76.5t34 -39t63.5 -11h25q39 0 60.5 14t32 47t13 86.5t2.5 132.5z"/>
    <glyph glyph-name="one" unicode="1" horiz-adv-x="345" d="M295 0h-168v626l-96 -23l-22 126l183 43q87 -20 103 -92v-680z"/>
    <glyph glyph-name="two" unicode="2" horiz-adv-x="596" d="M537 1q-51 -7 -107 -10.5t-110 -3.5q-100 0 -174 22t-116 52v153q0 60 23 102t59 70t80 44t85 23q37 6 61.5 12.5t38.5 18t20 30.5t6 51q0 46 -31.5 63t-82.5 17q-52 0 -100.5 -5t-102.5 -15l-15 137q51 5 102 8.5t117 3.5q58 0 108 -6.5t87.5 -26.5t59 -59t21.5 -103 q0 -77 -15.5 -122.5t-44 -71t-67.5 -37t-87 -20.5q-54 -11 -87.5 -21.5t-52 -24t-25 -31.5t-6.5 -43v-58q23 -11 57.5 -16.5t73.5 -5.5q54 0 107 4.5t110 12.5z"/>
    <glyph glyph-name="three" unicode="3" horiz-adv-x="608" d="M290 647q-28 0 -52.5 -1.5t-49.5 -4t-51 -6t-57 -8.5l-12 129q52 9 110 13.5t127 4.5t117 -9t78 -32.5t43.5 -62.5t13.5 -99q0 -70 -19 -110.5t-65 -60.5q54 -20 79.5 -64t25.5 -116q0 -63 -12.5 -107t-42.5 -72.5t-80.5 -41.5t-125.5 -13q-70 0 -136 5t-141 25l28 126 q102 -27 229 -27q25 0 46 3t36 15t23.5 36.5t8.5 67.5q0 32 -7 51t-22.5 29.5t-39.5 13.5t-58 3h-176v120h173q30 0 51.5 3t35 12.5t20 27.5t6.5 48q0 51 -21.5 76.5t-82.5 25.5z"/>
    <glyph glyph-name="four" unicode="4" horiz-adv-x="649" d="M430 199q-30 -3 -76.5 -5t-88.5 -2q-48 0 -88 10t-68 38.5t-43.5 79.5t-15.5 132v310h168v-352q0 -48 19 -68.5t58 -20.5t77 1.5t58 6.5v433h169v-762h-169v199z"/>
    <glyph glyph-name="five" unicode="5" horiz-adv-x="583" d="M517 614q-65 10 -113.5 13.5t-93.5 3.5t-73 -5t-51 -17v-56q0 -24 9 -38.5t27 -24t44.5 -15t61.5 -11.5q57 -9 99.5 -22.5t70.5 -40.5t41.5 -72t13.5 -118q0 -72 -19 -116t-56.5 -68t-92.5 -32t-127 -8q-66 0 -120 3.5t-105 8.5l15 142q51 -10 100.5 -15.5t100.5 -5.5 q34 0 59.5 4t41.5 15.5t24 31.5t8 52q0 25 -3.5 41.5t-13.5 28.5t-26.5 20t-42.5 16t-56 13.5t-59.5 13t-56.5 18.5t-48 30t-33.5 48t-12.5 72v175q42 31 110 53t168 22q54 0 109.5 -3t106.5 -11z"/>
    <glyph glyph-name="six" unicode="6" horiz-adv-x="654" d="M242 623q-17 -26 -30.5 -73t-16.5 -101q28 12 68 19.5t97 7.5q73 0 123.5 -10.5t81.5 -37.5t45 -72t14 -114q0 -80 -21.5 -129.5t-62.5 -78t-100 -38.5t-134 -10q-61 0 -105 15t-74.5 41t-49.5 61t-29.5 75t-14 83t-3.5 85q0 117 22 213t81 174q63 23 129.5 32t138.5 9 q58 0 105 -6t85 -15l-17 -138q-48 11 -94.5 17.5t-94.5 6.5q-32 0 -69.5 -4t-73.5 -12zM196 318q1 -53 7.5 -91.5t21.5 -63t39.5 -36.5t61.5 -12q34 0 58.5 4.5t40.5 17.5t23.5 36.5t7.5 61.5q0 37 -7.5 60t-24.5 35.5t-44.5 16.5t-67.5 4q-32 0 -60 -9.5t-56 -23.5z"/>
    <glyph glyph-name="seven" unicode="7" horiz-adv-x="568" d="M30 762h527l-23 -122q-78 -156 -139 -313.5t-109 -326.5h-192q57 166 127 322.5t161 295.5h-352v144z"/>
    <glyph glyph-name="eight" unicode="8" horiz-adv-x="639" d="M333 774q65 0 112.5 -10t78.5 -33t46 -62t15 -96t-27 -95.5t-75 -67.5q27 -15 50.5 -33t40 -42.5t26 -56.5t9.5 -74q0 -55 -15.5 -96t-49 -68t-86.5 -40.5t-129 -13.5q-33 0 -68 1.5t-68 8t-62.5 20.5t-52 39t-35.5 62.5t-13 92.5q0 79 32 124t92 71q-51 26 -76 64 t-25 104q0 63 17.5 102t53 61t88 30t121.5 8zM363 356q-38 -6 -68 -14t-51 -21.5t-32.5 -36t-11.5 -56.5q0 -39 11 -61.5t27.5 -34t37 -14.5t40.5 -3q22 0 43 4t37 15t25.5 32t9.5 56q0 24 -5 42.5t-14 34.5t-21.5 29.5t-27.5 27.5zM337 645q-17 0 -38 -2t-39 -9.5 t-30.5 -23t-12.5 -43.5q0 -40 14 -67t41 -47q42 8 70.5 16t46.5 20.5t26 31t8 46.5q0 40 -19 59t-67 19z"/>
    <glyph glyph-name="nine" unicode="9" horiz-adv-x="651" d="M391 133q20 23 37.5 62.5t22.5 109.5q-34 -12 -74 -19t-91 -7q-69 0 -117.5 11.5t-79 39.5t-45 74t-14.5 114q0 79 19 129t57 78t95 38.5t133 10.5q90 0 146.5 -29t87.5 -78.5t42 -115t11 -138.5q0 -65 -9.5 -123.5t-26 -109t-39 -91.5t-48.5 -71q-51 -16 -109 -21.5 t-119 -5.5q-63 0 -119 5.5t-95 13.5l18 138q52 -11 113 -17.5t118 -6.5q22 0 44 2.5t42 6.5zM455 437q-2 52 -7.5 91t-19.5 65t-38 39.5t-62 13.5q-31 0 -55.5 -4.5t-41.5 -18t-26 -37t-9 -62.5q0 -40 10 -63.5t28.5 -36t45.5 -16t61 -3.5q32 0 59.5 9t54.5 23z"/>
    <glyph glyph-name="colon" unicode=":" horiz-adv-x="265" d="M50 133h165v-133h-165v133zM50 499h165v-133h-165v133z"/>
    <glyph glyph-name="semicolon" unicode=";" horiz-adv-x="302" d="M85 138l167 -16q-30 -143 -108 -269l-94 10zM87 499h165v-133h-165v133z"/>
    <glyph glyph-name="less" unicode="&lt;" horiz-adv-x="436" d="M386 130l-336 208v73l336 206v-104l-243 -139l243 -141v-103z"/>
    <glyph glyph-name="equal" unicode="=" horiz-adv-x="574" d="M50 333h474v-90h-474v90zM50 525h474v-89h-474v89z"/>
    <glyph glyph-name="greater" unicode="&gt;" horiz-adv-x="436" d="M386 338l-336 -208v103l242 141l-242 139v104l336 -206v-73z"/>
    <glyph glyph-name="question" unicode="?" horiz-adv-x="534" d="M30 766q51 10 105 17t105 7q63 0 113 -8t84.5 -28.5t52.5 -56.5t18 -93q0 -72 -17.5 -114.5t-44.5 -67t-57.5 -36.5t-57.5 -22.5t-44.5 -25.5t-17.5 -46q0 -23 1.5 -37t6.5 -28h-147q-6 17 -9 36t-3 49q0 44 14.5 73.5t37 49t48.5 30t50 17.5q53 15 69 37t16 50 q0 46 -24.5 60t-69.5 14q-61 0 -110 -7t-101 -18zM122 133h160v-133h-160v133z"/>
    <glyph glyph-name="at" unicode="@" horiz-adv-x="769" d="M601 547q-1 39 -10.5 67.5t-30 47t-54 27.5t-81.5 9q-76 0 -123 -20.5t-73.5 -66t-36 -118.5t-9.5 -177q0 -96 12 -158t43.5 -98t87 -50t141.5 -14q80 0 138.5 9.5t112.5 27.5l27 -102q-52 -17 -119.5 -31.5t-158.5 -14.5q-112 0 -192.5 18.5t-132 66.5t-76 131.5 t-24.5 214.5q0 126 16 217.5t61 150.5t124.5 87.5t205.5 28.5q77 0 131 -17t88 -48.5t49.5 -76.5t15.5 -102v-367q-20 -18 -51.5 -33t-67.5 -25.5t-73.5 -16.5t-69.5 -6q-58 0 -93.5 21t-55 53.5t-26 71.5t-6.5 75q0 42 8 83.5t29.5 74t59.5 53t99 20.5q28 0 60 -3t55 -10z M495 210q37 0 65 8t42 22v205q-17 7 -45.5 11t-54.5 4q-49 0 -64.5 -30.5t-15.5 -99.5q0 -29 2.5 -51t10 -37.5t22 -23.5t38.5 -8z"/>
    <glyph glyph-name="A" unicode="A" horiz-adv-x="696" d="M509 0q-8 39 -15.5 79t-15.5 80h-262q-9 -40 -17 -80t-16 -79h-174q35 190 86 384t111 378h285q60 -183 112 -377.5t84 -384.5h-178zM331 624q-25 -88 -47.5 -173.5t-42.5 -173.5h212q-20 88 -42 174t-46 173h-34z"/>
    <glyph glyph-name="B" unicode="B" horiz-adv-x="634" d="M50 744q45 13 121 21.5t185 8.5q63 0 108 -10t74 -34t42.5 -64.5t13.5 -100.5q0 -61 -26 -103.5t-74 -60.5q55 -14 87.5 -52.5t32.5 -108.5q0 -86 -31 -134t-84.5 -71.5t-124.5 -29t-151 -5.5h-173v744zM217 126h69q28 0 56.5 2.5t51.5 13t37.5 31.5t14.5 57 q0 31 -8.5 51.5t-27.5 32.5t-49 17t-72 5h-72v-210zM344 646q-72 0 -127 -12v-179h72q33 0 59 2t44 11t27.5 27.5t9.5 52.5q0 50 -17.5 74t-67.5 24z"/>
    <glyph glyph-name="C" unicode="C" horiz-adv-x="649" d="M286 774q120 0 203 -20t125 -38l-30 -129q-46 19 -116.5 34t-161.5 15q-33 0 -54.5 -19.5t-33.5 -54.5t-17 -84t-5 -108q0 -50 5 -95t17.5 -78.5t34.5 -53t55 -19.5q90 0 160 14t121 36l30 -128q-20 -10 -52 -20.5t-75 -19.5t-96 -14.5t-115 -5.5q-73 0 -121 29t-77 81.5 t-41 126t-12 163.5q0 88 12 160t41 122.5t78.5 78t124.5 27.5z"/>
    <glyph glyph-name="D" unicode="D" horiz-adv-x="692" d="M50 754q54 11 114.5 15.5t126.5 4.5q105 0 176 -17t114.5 -61t62 -119.5t18.5 -191.5q0 -87 -13.5 -150t-41 -105.5t-68.5 -68t-95.5 -39.5t-122.5 -18t-149 -4h-122v754zM496 385q0 82 -11 131t-34.5 75.5t-58.5 35t-83 8.5q-21 0 -44.5 -2t-46.5 -4v-489q63 0 114.5 6 t88 30t56 73t19.5 136z"/>
    <glyph glyph-name="E" unicode="E" horiz-adv-x="600" d="M541 463v-129h-323v-88q0 -39 11.5 -66t31.5 -43h299v-137h-379q-131 56 -131 240v522h507v-139h-339v-160h323z"/>
    <glyph glyph-name="F" unicode="F" horiz-adv-x="570" d="M50 0v526q0 180 131 236h359v-139h-281q-25 -13 -32.5 -39t-7.5 -74v-63h301v-134h-301v-313h-169z"/>
    <glyph glyph-name="G" unicode="G" horiz-adv-x="686" d="M286 774q120 0 203 -20t125 -38l-30 -129q-46 19 -116.5 34t-161.5 15q-33 0 -54.5 -19.5t-33.5 -54.5t-17 -84t-5 -108q0 -50 5 -95t18.5 -78.5t37 -53t61.5 -19.5q46 0 75.5 7t46 23.5t22.5 44t6 69.5v87h169v-115q0 -76 -22.5 -125t-65 -77.5t-103.5 -39.5t-137 -11 q-86 0 -140 28.5t-85 81t-42.5 126t-11.5 163.5q0 88 12 160t41 122.5t78.5 78t124.5 27.5z"/>
    <glyph glyph-name="H" unicode="H" horiz-adv-x="697" d="M647 0h-169v325h-259v-325h-169v762h169v-303h259v303h169v-762z"/>
    <glyph glyph-name="I" unicode="I" horiz-adv-x="268" d="M50 762h168v-762h-168v762z"/>
    <glyph glyph-name="J" unicode="J" horiz-adv-x="500" d="M450 762v-509q0 -81 -15.5 -132t-43.5 -79.5t-68 -38.5t-88 -10q-66 0 -126.5 3.5t-93.5 9.5l15 137q33 -5 78.5 -8t96.5 -3q39 0 57.5 20.5t18.5 68.5v541h169z"/>
    <glyph glyph-name="K" unicode="K" horiz-adv-x="677" d="M218 461h64q54 72 99 147.5t79 153.5h190q-52 -97 -107 -182t-115 -163q69 -96 129 -200.5t115 -216.5h-194q-42 93 -89.5 177t-99.5 162h-71v-339h-168v762h168v-301z"/>
    <glyph glyph-name="L" unicode="L" horiz-adv-x="500" d="M218 762v-541q0 -48 19 -68.5t58 -20.5q57 0 100.5 3t73.5 8l16 -137q-17 -3 -41 -5.5t-53 -4t-61 -2.5t-65 -1q-48 0 -88 10t-68 38.5t-43.5 79.5t-15.5 132v509h168z"/>
    <glyph glyph-name="M" unicode="M" horiz-adv-x="918" d="M855 762l31 -762h-166v613h-29l-109 -613h-246l-109 613h-41v-613h-154l31 762h272l109 -615h30l110 615h271z"/>
    <glyph glyph-name="N" unicode="N" horiz-adv-x="757" d="M50 0v762h288l187 -633h28v633h154v-762h-292l-182 624h-28v-624h-155z"/>
    <glyph glyph-name="O" unicode="O" horiz-adv-x="724" d="M694 385q0 -116 -18 -193t-57.5 -123t-102.5 -64.5t-154 -18.5q-98 0 -162 18t-101.5 62.5t-53 119.5t-15.5 190q0 118 17.5 195t57 122t102.5 63t155 18q98 0 162.5 -18.5t102 -63.5t52.5 -120t15 -187zM196 376q0 -80 7.5 -129t26.5 -76t51 -36.5t81 -9.5q46 0 78 13 t51.5 43.5t28 80t8.5 123.5q0 79 -7.5 128t-26.5 76t-51 36.5t-81 9.5q-47 0 -79 -13t-51.5 -43t-27.5 -80t-8 -123z"/>
    <glyph glyph-name="P" unicode="P" horiz-adv-x="634" d="M50 744q64 13 136 21.5t168 8.5q56 0 103 -9t80.5 -35t52.5 -73t19 -122q0 -72 -12 -119.5t-43.5 -75t-85 -39t-135.5 -11.5h-115v-290h-168v744zM351 635q-38 0 -71 -3t-62 -8v-204h111q30 0 51.5 3.5t36 15t21 32t6.5 55.5q0 54 -21 81.5t-72 27.5z"/>
    <glyph glyph-name="Q" unicode="Q" horiz-adv-x="724" d="M694 385q0 -149 -30 -234.5t-98 -124.5l118 -128l-101 -51l-181 141q-10 -1 -19.5 -1.5t-20.5 -0.5q-98 0 -162 18t-101.5 62.5t-53 119.5t-15.5 190q0 118 17.5 195t57 122t102.5 63t155 18q98 0 162.5 -18.5t102 -63.5t52.5 -120t15 -187zM196 376q0 -80 7.5 -129 t26.5 -76t51 -36.5t81 -9.5q46 0 78 13t51.5 43.5t28 80t8.5 123.5q0 79 -7.5 128t-26.5 76t-51 36.5t-81 9.5q-47 0 -79 -13t-51.5 -43t-27.5 -80t-8 -123z"/>
    <glyph glyph-name="R" unicode="R" horiz-adv-x="635" d="M50 744q31 8 67.5 14t75 9.5t77.5 5t74 1.5q60 0 106 -8t77.5 -30.5t47.5 -63.5t16 -107q0 -51 -7.5 -87t-23 -60.5t-39 -40.5t-56.5 -27q29 -33 52.5 -74.5t42 -87t33.5 -94t27 -94.5h-188q-9 42 -20.5 86t-26 85.5t-33 79.5t-41.5 68h-93v-319h-168v744zM346 635 q-37 0 -69.5 -2.5t-58.5 -8.5v-180h87q33 0 56 4t37.5 15t21.5 29.5t7 48.5q0 48 -17.5 71t-63.5 23z"/>
    <glyph glyph-name="S" unicode="S" horiz-adv-x="583" d="M517 620q-51 8 -98 13.5t-95 5.5q-39 0 -71 -5t-63 -19v-56q0 -23 14 -35.5t36 -20t50 -12t57 -10.5q58 -12 97.5 -28t63.5 -45t34.5 -76t10.5 -121q0 -72 -21 -116t-58.5 -68t-90.5 -32t-116 -8q-72 0 -127.5 3.5t-106.5 8.5l15 147q54 -10 100.5 -15.5t98.5 -5.5 q16 0 31.5 1.5t27.5 6.5q45 6 64 24.5t19 57.5q0 26 -5 42.5t-18 27t-35.5 18t-57.5 15.5q-47 10 -91 22.5t-78 37t-54 65t-20 107.5v149q104 76 285 76q54 0 106 -4.5t103 -10.5z"/>
    <glyph glyph-name="T" unicode="T" horiz-adv-x="569" d="M10 762h549v-139h-188v-623h-168v623h-193v139z"/>
    <glyph glyph-name="U" unicode="U" horiz-adv-x="678" d="M628 98q-38 -54 -111 -83t-169 -29q-69 0 -124 8.5t-94 31.5t-59.5 63t-20.5 102v571h168v-554q0 -29 10 -45.5t26.5 -25t38.5 -10.5t45 -2q32 0 61 7.5t61 28.5v601h168v-664z"/>
    <glyph glyph-name="V" unicode="V" horiz-adv-x="696" d="M187 762q29 -161 64.5 -316t78.5 -308h35q45 154 80.5 308.5t66.5 315.5h175q-35 -190 -86 -384t-111 -378h-285q-60 183 -112 377.5t-84 384.5h178z"/>
    <glyph glyph-name="W" unicode="W" horiz-adv-x="1033" d="M179 762q18 -160 39.5 -313.5t45.5 -301.5h28q29 157 54.5 312.5t46.5 302.5h252q20 -162 44.5 -313.5t55.5 -302.5h28q26 156 46 309t36 307h169q-25 -190 -56.5 -383.5t-66.5 -378.5h-269q-32 148 -57.5 295t-43.5 297h-22q-17 -152 -42.5 -298.5t-54.5 -293.5h-280 q-36 188 -68 381.5t-55 380.5h170z"/>
    <glyph glyph-name="X" unicode="X" horiz-adv-x="731" d="M253 762l119 -222l117 222h196l-206 -354l242 -408h-209l-151 283l-155 -283h-196l244 404l-210 358h209z"/>
    <glyph glyph-name="Y" unicode="Y" horiz-adv-x="647" d="M186 762q20 -94 44 -186.5t56 -188.5h77q32 96 55.5 188.5t43.5 186.5h176q-48 -196 -110.5 -386.5t-137.5 -375.5h-177q32 66 61.5 132.5t49.5 132.5h-160q-49 121 -86.5 244.5t-69.5 252.5h178z"/>
    <glyph glyph-name="Z" unicode="Z" horiz-adv-x="587" d="M36 762h508l-19 -109l-275 -499h317v-154h-537l18 110l277 497h-289v155z"/>
    <glyph glyph-name="bracketleft" unicode="[" horiz-adv-x="320" d="M166 760v-799h104v-82h-220v964h220v-83h-104z"/>
    <glyph glyph-name="backslash" unicode="\" horiz-adv-x="453" d="M126 782l309 -806h-111l-310 806h112z"/>
    <glyph glyph-name="bracketright" unicode="]" horiz-adv-x="319" d="M50 -39h101v799h-92v83h210v-964h-219v82z"/>
    <glyph glyph-name="asciicircum" unicode="^" horiz-adv-x="537" d="M310 761l177 -403h-119l-101 260l-102 -260h-115l174 403h86z"/>
    <glyph glyph-name="underscore" unicode="_" horiz-adv-x="546" d="M-1 -60h548v-78h-548v78z"/>
    <glyph glyph-name="grave" unicode="`" horiz-adv-x="364" d="M50 672l29 98l235 -98l-19 -70z"/>
    <glyph glyph-name="a" unicode="a" d="M58 532q61 17 127.5 27t139.5 10q97 0 137.5 -44.5t40.5 -135.5v-288q-25 -21 -56.5 -41.5t-69.5 -36.5t-83 -26t-97 -10q-41 0 -72 13t-52 35.5t-32 53t-11 65.5q0 66 23.5 103.5t65.5 55.5t100 22.5t128 4.5v62q0 22 -11 33t-39 11t-53.5 -1t-51 -4t-53 -8.5 t-60.5 -14.5zM184 167q0 -32 15 -44.5t33 -12.5q39 0 68 12t47 27v98q-41 -1 -71.5 -4t-50.5 -11.5t-30.5 -24t-10.5 -40.5z"/>
    <glyph glyph-name="b" unicode="b" d="M210 548q21 11 48 16t69 5q57 0 94.5 -17.5t60 -52.5t32 -88t9.5 -123q0 -73 -11.5 -129t-39 -94.5t-74.5 -58.5t-118 -20q-111 0 -230 25v780h160v-243zM304 444q-32 0 -54 -6.5t-42 -17.5v-303q29 -10 72 -10q51 0 69 42.5t18 133.5q0 85 -14 123t-49 38z"/>
    <glyph glyph-name="c" unicode="c" horiz-adv-x="515" d="M265 569q43 0 74.5 -4.5t55.5 -12t41.5 -16.5t33.5 -18l-27 -112q-16 9 -36.5 16t-42.5 12.5t-45 8.5t-44 3q-50 0 -69.5 -44t-19.5 -122q0 -81 18.5 -125.5t60.5 -44.5q36 0 63.5 4t48.5 10t38 14t33 16l27 -110q-14 -10 -33.5 -20.5t-46 -18.5t-60.5 -13.5t-76 -5.5 q-68 0 -112 20.5t-70 58.5t-36.5 92.5t-10.5 122.5q0 67 10.5 121t37 91t72 57t115.5 20z"/>
    <glyph glyph-name="d" unicode="d" horiz-adv-x="558" d="M351 791h157v-699q-42 -48 -108 -77t-160 -29q-67 0 -108 20t-63.5 57t-30.5 89.5t-8 117.5q0 75 9 131t32.5 93.5t63 56t100.5 18.5q38 0 65.5 -5t50.5 -14v241zM252 110q30 0 57.5 11.5t41.5 30.5v274q-35 20 -75 20q-29 0 -46 -9.5t-26.5 -30t-12.5 -53.5t-3 -81 q0 -85 11.5 -123.5t52.5 -38.5z"/>
    <glyph glyph-name="e" unicode="e" horiz-adv-x="547" d="M186 249q1 -44 6 -71t15.5 -42t27.5 -20.5t42 -5.5q60 0 110 13.5t90 30.5l23 -113q-51 -23 -109.5 -39t-127.5 -16q-76 0 -122 20t-70.5 57t-32.5 89.5t-8 118.5q0 70 6.5 134t24.5 127q48 18 106.5 27.5t133.5 9.5q62 0 103.5 -17t66.5 -49t35.5 -79t10.5 -107v-68 h-331zM301 454q-27 0 -53.5 -2.5t-50.5 -7.5q-4 -16 -7 -43t-4 -62h175q0 61 -11 88t-49 27z"/>
    <glyph glyph-name="f" unicode="f" horiz-adv-x="323" d="M49 0v446h-38v68l38 36v110q0 43 15.5 70t41.5 43t59.5 22t68.5 6q26 0 52.5 -5t46.5 -13l-18 -105q-27 10 -66 10q-19 0 -30 -11.5t-11 -50.5v-71h104v-109h-104v-446h-159z"/>
    <glyph glyph-name="g" unicode="g" d="M272 569q54 0 111 -6.5t120 -18.5v-555q0 -56 -17.5 -93.5t-50 -59.5t-78 -31t-102.5 -9q-63 0 -107 11.5t-73 28.5l8 121q29 -12 71.5 -24.5t84.5 -12.5q54 0 79.5 16.5t25.5 69.5v78q-19 -9 -46 -14.5t-72 -5.5q-57 0 -94.5 18t-60 50.5t-32 76.5t-9.5 97q0 52 12 100 t40 84t74.5 57.5t115.5 21.5zM250 188q35 0 55 6.5t40 17.5v223q-35 11 -73 11q-50 0 -68 -32.5t-18 -102.5q0 -66 14.5 -94.5t49.5 -28.5z"/>
    <glyph glyph-name="h" unicode="h" horiz-adv-x="566" d="M50 0v791h159v-256q34 15 72.5 24.5t80.5 9.5t71.5 -12.5t47.5 -34t26.5 -51.5t8.5 -65v-406h-159v413q0 17 -10 25t-24 8q-56 0 -114 -34v-412h-159z"/>
    <glyph glyph-name="i" unicode="i" horiz-adv-x="259" d="M50 555h159v-555h-159v555zM50 791h159v-132h-159v132z"/>
    <glyph glyph-name="j" unicode="j" horiz-adv-x="255" d="M205 555v-630q0 -64 -37.5 -96.5t-118.5 -32.5q-38 0 -65 2.5t-52 7.5l8 116q23 -4 43 -5.5t37 -1.5q26 0 26 42v598h159zM46 791h159v-132h-159v132z"/>
    <glyph glyph-name="k" unicode="k" horiz-adv-x="557" d="M209 344h41q38 45 68 99.5t52 111.5h169q-64 -146 -150 -244q51 -72 92 -150.5t76 -160.5h-173q-23 64 -53 128t-75 119h-47v-247h-159v791h159v-447z"/>
    <glyph glyph-name="l" unicode="l" horiz-adv-x="259" d="M50 791h159v-791h-159v791z"/>
    <glyph glyph-name="m" unicode="m" horiz-adv-x="873" d="M50 0v481q52 28 97.5 45.5t84.5 27t71 12.5t58 3q39 0 68.5 -13t44.5 -33q54 26 105 36t89 10q42 0 71.5 -12.5t48 -34t27 -51.5t8.5 -65v-406h-159v413q0 17 -10 25t-26 8q-27 0 -55 -7t-57 -23v-416h-159v413q0 17 -10 25t-26 8q-27 0 -55 -7t-57 -23v-416h-159z"/>
    <glyph glyph-name="n" unicode="n" horiz-adv-x="581" d="M50 0v481q53 29 101.5 46.5t90 26.5t75.5 12t59 3q42 0 71.5 -12.5t48 -34t27 -51.5t8.5 -65v-406h-159v413q0 17 -10 25t-26 8q-27 0 -62 -7.5t-65 -22.5v-416h-159z"/>
    <glyph glyph-name="o" unicode="o" horiz-adv-x="581" d="M30 275q0 88 14.5 145t46 90t80.5 46t119 13q75 0 125 -13.5t80 -47t43 -89t13 -139.5q0 -86 -14.5 -143t-46 -90.5t-81 -47t-119.5 -13.5q-75 0 -125 13t-80 46t-42.5 88.5t-12.5 141.5zM394 280q0 53 -5 85.5t-17 50.5t-32 24t-50 6q-28 0 -47.5 -8.5t-32 -28.5 t-18 -53t-5.5 -81q0 -53 5 -85.5t17 -50t31.5 -23t49.5 -5.5q28 0 48 8t32.5 27.5t18 52t5.5 81.5z"/>
    <glyph glyph-name="p" unicode="p" horiz-adv-x="558" d="M207 -198h-157v661q54 48 123 77t162 29q60 0 97.5 -20t59 -57t29 -89.5t7.5 -117.5q0 -69 -9.5 -124.5t-33 -94.5t-63 -59.5t-100.5 -20.5q-35 0 -63 5t-52 14v-203zM315 446q-72 0 -108 -42v-275q19 -9 38.5 -14t40.5 -5q27 0 43.5 9t25.5 29.5t12 53.5t3 81 q0 78 -10 120.5t-45 42.5z"/>
    <glyph glyph-name="q" unicode="q" d="M342 6q-19 -9 -49.5 -14.5t-78.5 -5.5q-101 0 -142.5 71t-41.5 210q0 72 12 128t40 95t74.5 59t115.5 20q54 0 111 -6.5t120 -18.5v-742h-161v204zM249 110q34 0 55 6t41 18v301q-15 5 -32.5 8t-40.5 3q-50 0 -68 -41t-18 -133q0 -87 14.5 -124.5t48.5 -37.5z"/>
    <glyph glyph-name="r" unicode="r" horiz-adv-x="347" d="M50 0v483q38 21 77.5 35t76.5 23t71 13.5t62 6.5v-122q-32 -3 -66 -8.5t-62 -19.5v-411h-159z"/>
    <glyph glyph-name="s" unicode="s" horiz-adv-x="491" d="M421 418q-40 13 -84 20t-80 7q-27 0 -47.5 -5t-31.5 -11q0 -17 1.5 -29t8.5 -20.5t19.5 -15t35.5 -12.5q48 -13 88.5 -23t69 -27t44.5 -46t16 -80q0 -60 -18 -97t-50 -57.5t-77 -27.5t-100 -7q-49 0 -94 5t-88 15l13 126q39 -11 81 -16.5t82 -5.5q19 0 38 1.5t34 7 t24.5 16.5t9.5 31q0 14 -5.5 23.5t-19.5 16t-38.5 12t-61.5 11.5q-59 13 -91 33.5t-48 53t-19 77.5t-3 106q32 27 90.5 48t136.5 21q39 0 86 -6.5t86 -19.5z"/>
    <glyph glyph-name="t" unicode="t" horiz-adv-x="318" d="M208 683v-128h87v-109h-87v-302q0 -32 26 -32q11 0 23.5 5t23.5 11l23 -102q-36 -23 -66 -31.5t-66 -8.5q-123 0 -123 110v350h-38v68l38 36v133h159z"/>
    <glyph glyph-name="u" unicode="u" horiz-adv-x="572" d="M522 555v-481q-38 -25 -78 -42t-79 -27t-75 -14.5t-67 -4.5q-49 0 -82 12t-53.5 34t-29 52t-8.5 65v406h159v-413q0 -17 11 -24.5t25 -7.5q28 0 59 7t58 20v418h160z"/>
    <glyph glyph-name="v" unicode="v" horiz-adv-x="578" d="M569 555q-30 -138 -67 -279t-76 -276h-271q-40 134 -77.5 275t-68.5 280h165q21 -108 44.5 -213.5t51.5 -214.5h40q27 103 51.5 209.5t44.5 218.5h163z"/>
    <glyph glyph-name="w" unicode="w" horiz-adv-x="901" d="M172 555q13 -108 30 -214.5t37 -206.5h23q23 97 41.5 203t33.5 218h230q17 -112 35.5 -218t39.5 -203h22q21 103 37.5 209t30.5 212h160q-23 -137 -51.5 -278.5t-60.5 -276.5h-241q-23 100 -41.5 204.5t-31.5 207.5h-21q-14 -100 -33 -204.5t-44 -207.5h-248 q-34 141 -61.5 277.5t-49.5 277.5h163z"/>
    <glyph glyph-name="x" unicode="x" horiz-adv-x="556" d="M209 555l71 -140l73 140h171l-154 -252l186 -303h-189l-99 192l-98 -192h-173l180 294l-151 261h183z"/>
    <glyph glyph-name="y" unicode="y" horiz-adv-x="568" d="M176 555q11 -103 27.5 -198t35.5 -192h67q29 91 52.5 191t38.5 199h164q-26 -130 -55 -241t-65 -205t-81 -172.5t-103 -144.5l-115 68q38 38 67 85t50 99h-147q-33 131 -58.5 256.5t-44.5 254.5h167v0z"/>
    <glyph glyph-name="z" unicode="z" horiz-adv-x="482" d="M28 555h431l-19 -86l-218 -336h247v-133h-456l19 86l213 334h-217v135z"/>
    <glyph glyph-name="braceleft" unicode="{" horiz-adv-x="346" d="M50 408h29q29 27 29 101v173q0 78 34.5 119.5t83.5 41.5h70v-83q-24 0 -38.5 -5t-23 -20t-11 -42t-2.5 -71v-122q0 -95 -48 -135q48 -48 48 -123v-155q0 -37 3.5 -61t12 -38.5t23 -20.5t36.5 -6v-82h-68q-20 0 -41 7.5t-38.5 25t-29 47t-11.5 73.5v196q0 75 -29 104h-29 v76z"/>
    <glyph glyph-name="bar" unicode="|" horiz-adv-x="202" d="M50 841h102v-977h-102v977z"/>
    <glyph glyph-name="braceright" unicode="}" horiz-adv-x="346" d="M296 314h-29q-29 -27 -29 -101v-173q0 -78 -34.5 -119.5t-83.5 -41.5h-70v83q24 0 38.5 5t23 20t11 42t2.5 71v122q0 93 48 135q-48 48 -48 123v155q0 37 -3.5 61t-12 38.5t-23 20.5t-36.5 6v82h68q19 0 40.5 -7.5t39 -25t29 -47t11.5 -73.5v-196q0 -73 29 -105h29v-75z "/>
    <glyph glyph-name="asciitilde" unicode="~" horiz-adv-x="577" d="M50 369q25 26 55.5 40.5t68.5 14.5q32 0 61 -7t56 -15t53 -15t52 -7q28 0 60 15t71 52v-106q-31 -28 -63.5 -40t-70.5 -12q-29 0 -56.5 6.5t-54.5 14.5t-53.5 14.5t-52.5 6.5t-58 -16t-68 -54v108z"/>
    <glyph glyph-name="Adieresis" unicode="Ä" horiz-adv-x="696" d="M509 0q-8 39 -15.5 79t-15.5 80h-262q-9 -40 -17 -80t-16 -79h-174q35 190 86 384t111 378h285q60 -183 112 -377.5t84 -384.5h-178zM331 624q-25 -88 -47.5 -173.5t-42.5 -173.5h212q-20 88 -42 174t-46 173h-34zM203 946h104v-102h-104v102zM388 946h104v-102h-104v102 z"/>
    <glyph glyph-name="Aring" unicode="Å" horiz-adv-x="696" d="M509 0q-8 39 -15.5 79t-15.5 80h-262q-9 -40 -17 -80t-16 -79h-174q35 190 86 384t111 378h33q-9 14 -11.5 34.5t-2.5 49.5v12q0 33 6.5 54t21.5 32.5t40 15.5t62 4q39 0 62 -6.5t35 -21t15.5 -37t3.5 -53.5v-12q0 -50 -15 -72h35q60 -183 112 -377.5t84 -384.5h-178z M331 624q-25 -88 -47.5 -173.5t-42.5 -173.5h212q-20 88 -42 174t-46 173h-34zM348 899q-19 0 -30 -2.5t-16 -8t-6.5 -15t-1.5 -23.5v-8q0 -18 3 -28t9 -14.5t16 -5.5t25 -1q19 0 30.5 2.5t16.5 8t6.5 15t1.5 23.5v8q0 18 -3 28t-9.5 14.5t-16.5 5.5t-25 1z"/>
    <glyph glyph-name="Ccedilla" unicode="Ç" horiz-adv-x="649" d="M269 -194q7 45 12.5 88.5t10.5 91.5q-77 0 -127.5 29t-80.5 81.5t-42 126t-12 163.5q0 88 12 160t41 122.5t78.5 78t124.5 27.5q120 0 203 -20t125 -38l-30 -129q-46 19 -116.5 34t-161.5 15q-33 0 -54.5 -19.5t-33.5 -54.5t-17 -84t-5 -108q0 -50 5 -95t17.5 -78.5 t34.5 -53t55 -19.5q90 0 160 14t121 36l30 -128q-29 -14 -81.5 -29.5t-125.5 -23.5q-2 -28 -11 -55.5t-22.5 -54t-29 -50.5t-30.5 -45z"/>
    <glyph glyph-name="Eacute" unicode="É" horiz-adv-x="600" d="M541 463v-129h-323v-88q0 -39 11.5 -66t31.5 -43h299v-137h-379q-131 56 -131 240v522h507v-139h-339v-160h323zM462 879l-246 -69l-18 70l234 97z"/>
    <glyph glyph-name="Ntilde" unicode="Ñ" horiz-adv-x="757" d="M50 0v762h288l187 -633h28v633h154v-762h-292l-182 624h-28v-624h-155zM537 893q-17 -26 -40.5 -36t-49.5 -10q-42 0 -75 9t-65 9t-58 -25l-29 63q16 25 37.5 34t46.5 9q22 0 41 -3.5t36.5 -7t33.5 -7t31 -3.5q30 0 62 25z"/>
    <glyph glyph-name="Odieresis" unicode="Ö" horiz-adv-x="724" d="M694 385q0 -116 -18 -193t-57.5 -123t-102.5 -64.5t-154 -18.5q-98 0 -162 18t-101.5 62.5t-53 119.5t-15.5 190q0 118 17.5 195t57 122t102.5 63t155 18q98 0 162.5 -18.5t102 -63.5t52.5 -120t15 -187zM196 376q0 -80 7.5 -129t26.5 -76t51 -36.5t81 -9.5q46 0 78 13 t51.5 43.5t28 80t8.5 123.5q0 79 -7.5 128t-26.5 76t-51 36.5t-81 9.5q-47 0 -79 -13t-51.5 -43t-27.5 -80t-8 -123zM217 946h104v-102h-104v102zM402 946h104v-102h-104v102z"/>
    <glyph glyph-name="Udieresis" unicode="Ü" horiz-adv-x="678" d="M628 98q-38 -54 -111 -83t-169 -29q-69 0 -124 8.5t-94 31.5t-59.5 63t-20.5 102v571h168v-554q0 -29 10 -45.5t26.5 -25t38.5 -10.5t45 -2q32 0 61 7.5t61 28.5v601h168v-664zM194 946h104v-102h-104v102zM379 946h104v-102h-104v102z"/>
    <glyph glyph-name="aacute" unicode="á" d="M58 532q61 17 127.5 27t139.5 10q97 0 137.5 -44.5t40.5 -135.5v-288q-25 -21 -56.5 -41.5t-69.5 -36.5t-83 -26t-97 -10q-41 0 -72 13t-52 35.5t-32 53t-11 65.5q0 66 23.5 103.5t65.5 55.5t100 22.5t128 4.5v62q0 22 -11 33t-39 11t-53.5 -1t-51 -4t-53 -8.5 t-60.5 -14.5zM184 167q0 -32 15 -44.5t33 -12.5q39 0 68 12t47 27v98q-41 -1 -71.5 -4t-50.5 -11.5t-30.5 -24t-10.5 -40.5zM428 672l-246 -69l-18 70l234 97z"/>
    <glyph glyph-name="agrave" unicode="à" d="M58 532q61 17 127.5 27t139.5 10q97 0 137.5 -44.5t40.5 -135.5v-288q-25 -21 -56.5 -41.5t-69.5 -36.5t-83 -26t-97 -10q-41 0 -72 13t-52 35.5t-32 53t-11 65.5q0 66 23.5 103.5t65.5 55.5t100 22.5t128 4.5v62q0 22 -11 33t-39 11t-53.5 -1t-51 -4t-53 -8.5 t-60.5 -14.5zM184 167q0 -32 15 -44.5t33 -12.5q39 0 68 12t47 27v98q-41 -1 -71.5 -4t-50.5 -11.5t-30.5 -24t-10.5 -40.5zM124 672l29 98l235 -98l-19 -70z"/>
    <glyph glyph-name="acircumflex" unicode="â" d="M58 532q61 17 127.5 27t139.5 10q97 0 137.5 -44.5t40.5 -135.5v-288q-25 -21 -56.5 -41.5t-69.5 -36.5t-83 -26t-97 -10q-41 0 -72 13t-52 35.5t-32 53t-11 65.5q0 66 23.5 103.5t65.5 55.5t100 22.5t128 4.5v62q0 22 -11 33t-39 11t-53.5 -1t-51 -4t-53 -8.5 t-60.5 -14.5zM184 167q0 -32 15 -44.5t33 -12.5q39 0 68 12t47 27v98q-41 -1 -71.5 -4t-50.5 -11.5t-30.5 -24t-10.5 -40.5zM389 612l-114 84l-112 -84l-48 48l120 108h80l123 -108z"/>
    <glyph glyph-name="adieresis" unicode="ä" d="M58 532q61 17 127.5 27t139.5 10q97 0 137.5 -44.5t40.5 -135.5v-288q-25 -21 -56.5 -41.5t-69.5 -36.5t-83 -26t-97 -10q-41 0 -72 13t-52 35.5t-32 53t-11 65.5q0 66 23.5 103.5t65.5 55.5t100 22.5t128 4.5v62q0 22 -11 33t-39 11t-53.5 -1t-51 -4t-53 -8.5 t-60.5 -14.5zM184 167q0 -32 15 -44.5t33 -12.5q39 0 68 12t47 27v98q-41 -1 -71.5 -4t-50.5 -11.5t-30.5 -24t-10.5 -40.5zM132 739h104v-102h-104v102zM317 739h104v-102h-104v102z"/>
    <glyph glyph-name="atilde" unicode="ã" d="M58 532q61 17 127.5 27t139.5 10q97 0 137.5 -44.5t40.5 -135.5v-288q-25 -21 -56.5 -41.5t-69.5 -36.5t-83 -26t-97 -10q-41 0 -72 13t-52 35.5t-32 53t-11 65.5q0 66 23.5 103.5t65.5 55.5t100 22.5t128 4.5v62q0 22 -11 33t-39 11t-53.5 -1t-51 -4t-53 -8.5 t-60.5 -14.5zM184 167q0 -32 15 -44.5t33 -12.5q39 0 68 12t47 27v98q-41 -1 -71.5 -4t-50.5 -11.5t-30.5 -24t-10.5 -40.5zM435 686q-17 -26 -40.5 -36t-49.5 -10q-42 0 -75 9t-65 9t-58 -25l-29 63q16 25 37.5 34t46.5 9q22 0 41 -3.5t36.5 -7t33.5 -7t31 -3.5q30 0 62 25 z"/>
    <glyph glyph-name="aring" unicode="å" d="M58 532q61 17 127.5 27t139.5 10q97 0 137.5 -44.5t40.5 -135.5v-288q-25 -21 -56.5 -41.5t-69.5 -36.5t-83 -26t-97 -10q-41 0 -72 13t-52 35.5t-32 53t-11 65.5q0 66 23.5 103.5t65.5 55.5t100 22.5t128 4.5v62q0 22 -11 33t-39 11t-53.5 -1t-51 -4t-53 -8.5 t-60.5 -14.5zM184 167q0 -32 15 -44.5t33 -12.5q39 0 68 12t47 27v98q-41 -1 -71.5 -4t-50.5 -11.5t-30.5 -24t-10.5 -40.5zM269 597q-39 0 -62 6.5t-35 21t-15.5 36.5t-3.5 54v12q0 33 6.5 54t21.5 32.5t40 15.5t62 4q39 0 62 -6.5t35 -21t15.5 -37t3.5 -53.5v-12 q0 -33 -6.5 -54t-21.5 -32.5t-40 -15.5t-62 -4zM276 768q-19 0 -30 -2.5t-16 -8t-6.5 -15t-1.5 -23.5v-8q0 -18 3 -28t9 -14.5t16 -5.5t25 -1q19 0 30.5 2.5t16.5 8t6.5 15t1.5 23.5v8q0 18 -3 28t-9.5 14.5t-16.5 5.5t-25 1z"/>
    <glyph glyph-name="ccedilla" unicode="ç" horiz-adv-x="515" d="M195 -194q7 46 12.5 90.5t10.5 92.5q-56 6 -92 28.5t-57.5 60t-30 88.5t-8.5 114q0 67 10.5 121t37 91t72 57t115.5 20q43 0 74.5 -4.5t55.5 -12t41.5 -16.5t33.5 -18l-27 -112q-16 9 -36.5 16t-42.5 12.5t-45 8.5t-44 3q-50 0 -69.5 -44t-19.5 -122q0 -81 18.5 -125.5 t60.5 -44.5q36 0 63.5 4t48.5 10t38 14t33 16l27 -110q-22 -16 -57.5 -31t-89.5 -22q-8 -60 -35.5 -109t-57.5 -94z"/>
    <glyph glyph-name="eacute" unicode="é" horiz-adv-x="547" d="M186 249q1 -44 6 -71t15.5 -42t27.5 -20.5t42 -5.5q60 0 110 13.5t90 30.5l23 -113q-51 -23 -109.5 -39t-127.5 -16q-76 0 -122 20t-70.5 57t-32.5 89.5t-8 118.5q0 70 6.5 134t24.5 127q48 18 106.5 27.5t133.5 9.5q62 0 103.5 -17t66.5 -49t35.5 -79t10.5 -107v-68 h-331zM301 454q-27 0 -53.5 -2.5t-50.5 -7.5q-4 -16 -7 -43t-4 -62h175q0 61 -11 88t-49 27zM425 672l-246 -69l-18 70l234 97z"/>
    <glyph glyph-name="egrave" unicode="è" horiz-adv-x="547" d="M186 249q1 -44 6 -71t15.5 -42t27.5 -20.5t42 -5.5q60 0 110 13.5t90 30.5l23 -113q-51 -23 -109.5 -39t-127.5 -16q-76 0 -122 20t-70.5 57t-32.5 89.5t-8 118.5q0 70 6.5 134t24.5 127q48 18 106.5 27.5t133.5 9.5q62 0 103.5 -17t66.5 -49t35.5 -79t10.5 -107v-68 h-331zM301 454q-27 0 -53.5 -2.5t-50.5 -7.5q-4 -16 -7 -43t-4 -62h175q0 61 -11 88t-49 27zM121 672l29 98l235 -98l-19 -70z"/>
    <glyph glyph-name="ecircumflex" unicode="ê" horiz-adv-x="547" d="M186 249q1 -44 6 -71t15.5 -42t27.5 -20.5t42 -5.5q60 0 110 13.5t90 30.5l23 -113q-51 -23 -109.5 -39t-127.5 -16q-76 0 -122 20t-70.5 57t-32.5 89.5t-8 118.5q0 70 6.5 134t24.5 127q48 18 106.5 27.5t133.5 9.5q62 0 103.5 -17t66.5 -49t35.5 -79t10.5 -107v-68 h-331zM301 454q-27 0 -53.5 -2.5t-50.5 -7.5q-4 -16 -7 -43t-4 -62h175q0 61 -11 88t-49 27zM386 612l-114 84l-112 -84l-48 48l120 108h80l123 -108z"/>
    <glyph glyph-name="edieresis" unicode="ë" horiz-adv-x="547" d="M186 249q1 -44 6 -71t15.5 -42t27.5 -20.5t42 -5.5q60 0 110 13.5t90 30.5l23 -113q-51 -23 -109.5 -39t-127.5 -16q-76 0 -122 20t-70.5 57t-32.5 89.5t-8 118.5q0 70 6.5 134t24.5 127q48 18 106.5 27.5t133.5 9.5q62 0 103.5 -17t66.5 -49t35.5 -79t10.5 -107v-68 h-331zM301 454q-27 0 -53.5 -2.5t-50.5 -7.5q-4 -16 -7 -43t-4 -62h175q0 61 -11 88t-49 27zM129 739h104v-102h-104v102zM314 739h104v-102h-104v102z"/>
    <glyph glyph-name="iacute" unicode="í" horiz-adv-x="260" d="M50 555h160v-555h-160v555zM273 672l-246 -69l-18 70l234 97z"/>
    <glyph glyph-name="igrave" unicode="ì" horiz-adv-x="260" d="M50 555h160v-555h-160v555zM-21 672l29 98l235 -98l-19 -70z"/>
    <glyph glyph-name="icircumflex" unicode="î" horiz-adv-x="260" d="M50 555h160v-555h-160v555zM244 612l-114 84l-112 -84l-48 48l120 108h80l123 -108z"/>
    <glyph glyph-name="idieresis" unicode="ï" horiz-adv-x="260" d="M50 555h160v-555h-160v555zM-13 739h104v-102h-104v102zM172 739h104v-102h-104v102z"/>
    <glyph glyph-name="ntilde" unicode="ñ" horiz-adv-x="581" d="M50 0v481q53 29 101.5 46.5t90 26.5t75.5 12t59 3q42 0 71.5 -12.5t48 -34t27 -51.5t8.5 -65v-406h-159v413q0 17 -10 25t-26 8q-27 0 -62 -7.5t-65 -22.5v-416h-159zM449 686q-17 -26 -40.5 -36t-49.5 -10q-42 0 -75 9t-65 9t-58 -25l-29 63q16 25 37.5 34t46.5 9 q22 0 41 -3.5t36.5 -7t33.5 -7t31 -3.5q30 0 62 25z"/>
    <glyph glyph-name="oacute" unicode="ó" horiz-adv-x="581" d="M30 275q0 88 14.5 145t46 90t80.5 46t119 13q75 0 125 -13.5t80 -47t43 -89t13 -139.5q0 -86 -14.5 -143t-46 -90.5t-81 -47t-119.5 -13.5q-75 0 -125 13t-80 46t-42.5 88.5t-12.5 141.5zM394 280q0 53 -5 85.5t-17 50.5t-32 24t-50 6q-28 0 -47.5 -8.5t-32 -28.5 t-18 -53t-5.5 -81q0 -53 5 -85.5t17 -50t31.5 -23t49.5 -5.5q28 0 48 8t32.5 27.5t18 52t5.5 81.5zM442 672l-246 -69l-18 70l234 97z"/>
    <glyph glyph-name="ograve" unicode="ò" horiz-adv-x="581" d="M30 275q0 88 14.5 145t46 90t80.5 46t119 13q75 0 125 -13.5t80 -47t43 -89t13 -139.5q0 -86 -14.5 -143t-46 -90.5t-81 -47t-119.5 -13.5q-75 0 -125 13t-80 46t-42.5 88.5t-12.5 141.5zM394 280q0 53 -5 85.5t-17 50.5t-32 24t-50 6q-28 0 -47.5 -8.5t-32 -28.5 t-18 -53t-5.5 -81q0 -53 5 -85.5t17 -50t31.5 -23t49.5 -5.5q28 0 48 8t32.5 27.5t18 52t5.5 81.5zM138 672l29 98l235 -98l-19 -70z"/>
    <glyph glyph-name="ocircumflex" unicode="ô" horiz-adv-x="581" d="M30 275q0 88 14.5 145t46 90t80.5 46t119 13q75 0 125 -13.5t80 -47t43 -89t13 -139.5q0 -86 -14.5 -143t-46 -90.5t-81 -47t-119.5 -13.5q-75 0 -125 13t-80 46t-42.5 88.5t-12.5 141.5zM394 280q0 53 -5 85.5t-17 50.5t-32 24t-50 6q-28 0 -47.5 -8.5t-32 -28.5 t-18 -53t-5.5 -81q0 -53 5 -85.5t17 -50t31.5 -23t49.5 -5.5q28 0 48 8t32.5 27.5t18 52t5.5 81.5zM403 612l-114 84l-112 -84l-48 48l120 108h80l123 -108z"/>
    <glyph glyph-name="odieresis" unicode="ö" horiz-adv-x="581" d="M30 275q0 88 14.5 145t46 90t80.5 46t119 13q75 0 125 -13.5t80 -47t43 -89t13 -139.5q0 -86 -14.5 -143t-46 -90.5t-81 -47t-119.5 -13.5q-75 0 -125 13t-80 46t-42.5 88.5t-12.5 141.5zM394 280q0 53 -5 85.5t-17 50.5t-32 24t-50 6q-28 0 -47.5 -8.5t-32 -28.5 t-18 -53t-5.5 -81q0 -53 5 -85.5t17 -50t31.5 -23t49.5 -5.5q28 0 48 8t32.5 27.5t18 52t5.5 81.5zM146 739h104v-102h-104v102zM331 739h104v-102h-104v102z"/>
    <glyph glyph-name="otilde" unicode="õ" horiz-adv-x="581" d="M30 275q0 88 14.5 145t46 90t80.5 46t119 13q75 0 125 -13.5t80 -47t43 -89t13 -139.5q0 -86 -14.5 -143t-46 -90.5t-81 -47t-119.5 -13.5q-75 0 -125 13t-80 46t-42.5 88.5t-12.5 141.5zM394 280q0 53 -5 85.5t-17 50.5t-32 24t-50 6q-28 0 -47.5 -8.5t-32 -28.5 t-18 -53t-5.5 -81q0 -53 5 -85.5t17 -50t31.5 -23t49.5 -5.5q28 0 48 8t32.5 27.5t18 52t5.5 81.5zM449 686q-17 -26 -40.5 -36t-49.5 -10q-42 0 -75 9t-65 9t-58 -25l-29 63q16 25 37.5 34t46.5 9q22 0 41 -3.5t36.5 -7t33.5 -7t31 -3.5q30 0 62 25z"/>
    <glyph glyph-name="uacute" unicode="ú" horiz-adv-x="572" d="M522 555v-481q-38 -25 -78 -42t-79 -27t-75 -14.5t-67 -4.5q-49 0 -82 12t-53.5 34t-29 52t-8.5 65v406h159v-413q0 -17 11 -24.5t25 -7.5q28 0 59 7t58 20v418h160zM438 672l-246 -69l-18 70l234 97z"/>
    <glyph glyph-name="ugrave" unicode="ù" horiz-adv-x="572" d="M522 555v-481q-38 -25 -78 -42t-79 -27t-75 -14.5t-67 -4.5q-49 0 -82 12t-53.5 34t-29 52t-8.5 65v406h159v-413q0 -17 11 -24.5t25 -7.5q28 0 59 7t58 20v418h160zM134 672l29 98l235 -98l-19 -70z"/>
    <glyph glyph-name="ucircumflex" unicode="û" horiz-adv-x="572" d="M522 555v-481q-38 -25 -78 -42t-79 -27t-75 -14.5t-67 -4.5q-49 0 -82 12t-53.5 34t-29 52t-8.5 65v406h159v-413q0 -17 11 -24.5t25 -7.5q28 0 59 7t58 20v418h160zM398 612l-114 84l-112 -84l-48 48l120 108h80l123 -108z"/>
    <glyph glyph-name="udieresis" unicode="ü" horiz-adv-x="572" d="M522 555v-481q-38 -25 -78 -42t-79 -27t-75 -14.5t-67 -4.5q-49 0 -82 12t-53.5 34t-29 52t-8.5 65v406h159v-413q0 -17 11 -24.5t25 -7.5q28 0 59 7t58 20v418h160zM141 739h104v-102h-104v102zM326 739h104v-102h-104v102z"/>
    <glyph glyph-name="dagger" unicode="†" horiz-adv-x="570" d="M254 -62l-23 578l-181 30l51 54l131 15l23 192h64l23 -192l127 -15l51 -54l-178 -30l-22 -578h-66z"/>
    <glyph glyph-name="degree" unicode="°" horiz-adv-x="396" d="M197 675q-42 0 -60 -23t-18 -61t18 -61.5t60 -23.5t60 23t18 62q0 38 -18 61t-60 23zM197 745q78 0 113.5 -41t35.5 -113t-35.5 -114t-113.5 -42t-112.5 42t-34.5 114t34.5 113t112.5 41z"/>
    <glyph glyph-name="cent" unicode="¢" horiz-adv-x="511" d="M229 94q-56 5 -94.5 28.5t-61.5 61t-33 87.5t-10 108t10 107t33 86t61.5 59.5t94.5 27.5v80h77v-80q59 -4 92.5 -17.5t57.5 -27.5l-24 -101q-30 16 -72.5 26t-93.5 10q-29 0 -49 -14t-33 -38t-19 -54.5t-6 -63.5q0 -34 6 -65t19.5 -55t34.5 -38.5t50 -14.5q36 0 61.5 3.5 t44.5 9t33.5 13t28.5 15.5l24 -100q-22 -15 -59.5 -30.5t-95.5 -21.5v-95h-77v94z"/>
    <glyph glyph-name="sterling" unicode="£" horiz-adv-x="662" d="M19 406h41q-8 23 -12.5 49t-4.5 58q0 117 59.5 178t197.5 61q58 0 107.5 -5.5t89 -14t69.5 -18.5t51 -18l-27 -107q-17 8 -44.5 16.5t-62 15t-75.5 11t-85 4.5q-32 0 -56.5 -5.5t-41.5 -19.5t-25.5 -37.5t-8.5 -60.5q0 -32 7 -58t17 -49h287v-112h-245q2 -11 3.5 -21.5 t1.5 -21.5q0 -38 -17 -94q36 -5 64 -14t53.5 -17.5t51 -15t55.5 -6.5q38 0 78 18.5t91 63.5v-127q-42 -35 -83 -49t-89 -14q-38 0 -73.5 8t-70 18t-68.5 18t-68 8q-35 0 -75.5 -19.5t-86.5 -65.5v129q34 34 77 51q16 47 16 83q0 35 -12 68h-86v112z"/>
    <glyph glyph-name="section" unicode="§" horiz-adv-x="505" d="M13 440q14 14 40.5 26.5t52.5 18.5q-22 21 -35.5 52t-13.5 69q0 45 18 74.5t48 47t70.5 24t85.5 6.5q49 0 92.5 -5t83.5 -14v-108q-38 10 -79.5 16t-81.5 6q-18 0 -38.5 -1t-38 -7t-29.5 -18.5t-12 -35.5q0 -26 10 -39t25 -17q22 -6 44 -9t44.5 -7t46.5 -9.5t51 -16.5 q33 -14 54 -36.5t33 -52.5t17.5 -67t7.5 -79q-14 -13 -41 -24t-54 -16q22 -23 36 -54t14 -69q0 -45 -18 -74.5t-48 -47t-70.5 -24t-85.5 -6.5q-49 0 -92.5 5t-83.5 14v108q39 -10 80.5 -16t80.5 -6q17 0 37.5 1t38 6.5t29.5 18t12 35.5q0 26 -9.5 39t-25.5 18q-21 4 -41 7 t-41.5 6.5t-45 10t-50.5 17.5q-29 12 -49.5 34t-34.5 52t-22 67.5t-12 79.5zM128 393q7 -57 40.5 -81.5t103.5 -24.5q42 0 74.5 7t45.5 14q-4 34 -13.5 54.5t-28 31.5t-47 14.5t-70.5 3.5q-37 0 -65 -6t-40 -13z"/>
    <glyph glyph-name="bullet" unicode="•" horiz-adv-x="580" d="M102 414q0 61 11 99.5t34 59.5t59 28.5t86 7.5q49 0 85.5 -7.5t60 -28.5t35 -59.5t11.5 -99.5q0 -62 -11.5 -100t-35 -59t-60 -28t-85.5 -7q-50 0 -86 7t-59 28t-34 59t-11 100z"/>
    <glyph glyph-name="paragraph" unicode="¶" horiz-adv-x="546" d="M174 517q-17 1 -39.5 5t-45 10.5t-41 16t-26.5 21.5q0 38 10.5 69.5t33.5 53.5t58 34t85 12h307l-21 -97v-642h-123v518h-73v-518h-125v517v0z"/>
    <glyph glyph-name="germandbls" unicode="ß" horiz-adv-x="569" d="M50 577q0 66 10.5 109t36 68.5t68 36t105.5 10.5q69 0 117 -8.5t79 -30.5t45 -59.5t14 -95.5q0 -41 -4 -70t-13 -49.5t-23 -34t-35 -22.5q30 -14 47.5 -34.5t27 -47.5t12 -60.5t2.5 -72.5q0 -65 -11.5 -107.5t-41 -68t-79.5 -36t-128 -10.5v136q8 -2 15 -2h15h20 q34 0 43.5 35t9.5 98q0 36 -4.5 57.5t-16.5 33t-32 15t-51 3.5v112q21 0 38 3t28 13t17 28.5t6 50.5q0 30 -4.5 48t-13.5 27t-22.5 12t-32.5 3q-29 0 -45.5 -3.5t-25.5 -13.5t-11.5 -28.5t-2.5 -48.5v-573h-159v577z"/>
    <glyph glyph-name="registered" unicode="®" d="M510 487q0 -79 -16.5 -134t-47.5 -89.5t-75.5 -50.5t-101.5 -16q-68 0 -114 16.5t-74.5 51.5t-41 88t-12.5 127q0 79 16.5 134.5t47.5 90.5t76 50.5t102 15.5q67 0 113 -16.5t74.5 -51.5t41 -88.5t12.5 -127.5zM96 480q0 -69 10 -112.5t31 -67.5t54 -32.5t78 -8.5 q42 0 74 11.5t53.5 38.5t33 70.5t11.5 108.5q0 70 -10 113t-31 67t-53.5 32t-77.5 8q-42 0 -74 -11.5t-54 -38.5t-33.5 -70.5t-11.5 -107.5zM168 623q23 8 54.5 10.5t57.5 2.5q20 0 37 -2t29.5 -10t19.5 -24.5t7 -44.5q0 -71 -50 -85l62 -126h-67l-55 119h-35v-119h-60v279z M282 581q-20 0 -31 -0.5t-23 -3.5v-63h33q29 0 42.5 7t13.5 26q0 34 -35 34z"/>
    <glyph glyph-name="copyright" unicode="©" horiz-adv-x="722" d="M692 385q0 -108 -22.5 -184t-65 -124t-104 -69.5t-139.5 -21.5q-92 0 -155 23t-102 70.5t-56.5 121t-17.5 175.5q0 108 22.5 184t65 124t104 69.5t139.5 21.5q91 0 154.5 -23t102.5 -70.5t56.5 -121t17.5 -175.5zM113 375q0 -99 14.5 -161t44.5 -96t77 -46t112 -12 q60 0 106 16.5t77.5 54.5t48 100.5t16.5 154.5q0 99 -14.5 161t-44.5 96t-77 46t-112 12q-60 0 -106.5 -16.5t-78 -54.5t-47.5 -100.5t-16 -154.5zM353 572q57 0 85.5 -10.5t46.5 -20.5l-14 -59q-20 11 -51 17.5t-68 6.5q-20 0 -34.5 -11t-23.5 -28.5t-13.5 -40t-4.5 -45.5 q0 -24 4.5 -46.5t13.5 -40.5t24 -29t36 -11q25 0 43.5 2.5t32 6t24 8.5t20.5 10l15 -58q-17 -12 -50 -23.5t-90 -11.5q-42 0 -71 18t-46.5 46.5t-25 62.5t-7.5 66t7.5 66t25 61.5t47 45.5t74.5 18z"/>
    <glyph glyph-name="trademark" unicode="™" horiz-adv-x="748" d="M50 762h256v-71h-91v-289h-72v289h-93v71zM347 402l12 360h64l101 -219l101 219h64l14 -360h-76l-9 188l-77 -156h-37l-73 154l-8 -186h-76z"/>
    <glyph glyph-name="acute" unicode="´" horiz-adv-x="364" d="M314 672l-246 -69l-18 70l234 97z"/>
    <glyph glyph-name="dieresis" unicode="¨" horiz-adv-x="389" d="M50 739h104v-102h-104v102zM235 739h104v-102h-104v102z"/>
    <glyph glyph-name="notequal" unicode="≠" horiz-adv-x="574" d="M481 783l-100 -258h143v-89h-177l-40 -103h217v-90h-251l-103 -268h-95l103 268h-128v90h163l39 103h-202v89h237l98 258h96z"/>
    <glyph glyph-name="AE" unicode="Æ" horiz-adv-x="958" d="M899 463v-134h-308v-83q0 -39 11.5 -66t31.5 -43h284v-137h-364q-100 42 -124 159h-214q-9 -40 -17 -80t-16 -79h-174q35 190 86 384t111 378h709v-139h-324v-160h308zM331 624q-25 -88 -47.5 -173.5t-42.5 -173.5h182v347h-92z"/>
    <glyph glyph-name="Oslash" unicode="Ø" horiz-adv-x="724" d="M694 385q0 -116 -18 -193t-57.5 -122.5t-102.5 -64t-154 -18.5q-54 0 -99 6l-33 -82l-91 35l29 69q-39 18 -65.5 47t-42.5 72.5t-23 103t-7 138.5q0 118 17.5 195t57 122t102.5 63t155 18q51 0 95 -6l25 66l97 -28l-24 -61q40 -18 66.5 -47.5t42.5 -73t23 -103t7 -136.5z M316 127q11 -1 22.5 -1.5t23.5 -0.5q43 0 74.5 11.5t51.5 37t30 67.5t10 103q0 88 -8.5 144.5t-30.5 87.5zM196 376q0 -73 8.5 -118.5t28.5 -71.5l171 447q-6 1 -18.5 1.5t-23.5 0.5q-47 0 -79 -13t-51.5 -43t-27.5 -80t-8 -123z"/>
    <glyph glyph-name="yen" unicode="¥" horiz-adv-x="634" d="M180 762l112 -328h46l116 328h165l-150 -328h111v-115h-185v-319h-160v319h-181v115h109l-148 328h165z"/>
    <glyph glyph-name="mu" unicode="µ" horiz-adv-x="549" d="M50 555h144v-427q6 -34 59 -34q35 0 62.5 12.5t37.5 48.5v400h146v-494q0 -31 43 -47l-32 -79q-54 9 -85.5 29.5t-39.5 59.5q-23 -20 -56 -29t-70 -9q-38 0 -65 7v-178h-144v740z"/>
    <glyph glyph-name="ordfeminine" unicode="ª" horiz-adv-x="454" d="M53 728q54 17 112 26t115 9q78 0 111 -37t33 -109v-242q-17 -20 -40 -37.5t-54 -30t-70.5 -20t-90.5 -7.5q-76 0 -107.5 36.5t-31.5 103.5q0 56 18 87.5t52 47t84 19t114 3.5v53q0 35 -34 35q-48 0 -92.5 -5t-100.5 -17zM158 426q0 -27 12 -37t26 -10q35 0 60.5 11 t41.5 27v77q-35 -1 -61 -3.5t-43.5 -9t-26.5 -19.5t-9 -36z"/>
    <glyph glyph-name="ordmasculine" unicode="º" horiz-adv-x="493" d="M30 520q0 73 14 120t41.5 74.5t68 38.5t93.5 11q57 0 97.5 -11t67 -38.5t39 -74t12.5 -116.5q0 -72 -13 -119t-40 -74.5t-67.5 -38.5t-95.5 -11q-59 0 -100 11t-67 38t-38 73t-12 117zM337 524q0 44 -4.5 71.5t-15 43.5t-28 21.5t-42.5 5.5q-51 0 -70.5 -33t-19.5 -113 q0 -43 4.5 -70t15 -42t27.5 -20.5t43 -5.5q49 0 69.5 31.5t20.5 110.5z"/>
    <glyph glyph-name="ae" unicode="æ" horiz-adv-x="862" d="M501 249q2 -44 6.5 -71t15 -42t27 -20.5t42.5 -5.5q60 0 109 13.5t91 30.5q6 -29 11.5 -57t11.5 -56q-51 -23 -110 -38.5t-128 -15.5q-67 0 -106.5 18t-61.5 50q-35 -29 -86 -48.5t-126 -19.5q-41 0 -72 13t-52 35.5t-32 53t-11 65.5q0 66 23.5 103.5t65.5 55.5t100 22.5 t128 4.5v62q0 22 -11 33t-39 11q-53 0 -103.5 -6t-114.5 -22l-21 114q61 17 125 27t124 10q45 0 77 -9.5t47 -29.5q35 20 80 29.5t108 9.5q61 0 101.5 -17t65.5 -49t35.5 -79t10.5 -107v-68h-331zM184 167q0 -32 15 -44.5t33 -12.5q39 0 68 12t47 27v98q-41 -1 -71.5 -4 t-50.5 -11.5t-30.5 -24t-10.5 -40.5zM615 454q-27 0 -53.5 -2.5t-49.5 -7.5q-4 -16 -7 -43t-5 -62h175q0 61 -11 88t-49 27z"/>
    <glyph glyph-name="oslash" unicode="ø" horiz-adv-x="581" d="M30 275q0 88 14.5 145t46 90t80.5 46t119 13q14 0 29 -1t29 -3l33 82l94 -35l-27 -70q56 -27 79.5 -89t23.5 -173q0 -86 -14.5 -142.5t-46 -90t-81 -47t-119.5 -13.5q-32 0 -59 3l-35 -92l-92 35l29 76q-57 27 -80 89.5t-23 176.5zM404 280q0 42 -5 74t-16 49l-119 -302 h26q57 0 85.5 40.5t28.5 138.5zM315 454q-6 1 -12 1.5t-13 0.5q-57 0 -85 -42t-28 -139q0 -38 5.5 -67t15.5 -49z"/>
    <glyph glyph-name="questiondown" unicode="¿" horiz-adv-x="518" d="M506 -183q-51 -10 -105 -17t-105 -7q-63 0 -113 8t-84.5 28.5t-52.5 56.5t-18 93q0 72 17.5 114.5t44.5 67t57.5 36.5t57.5 22.5t44.5 25.5t17.5 46q0 23 -1.5 37t-6.5 28h147q6 -17 9 -36t3 -49q0 -44 -14.5 -73.5t-37 -49t-48.5 -30.5t-50 -17q-27 -8 -43.5 -17.5 t-25.5 -20.5t-12.5 -23.5t-3.5 -25.5q0 -46 24 -60t70 -14q61 0 110 7t101 18zM414 445h-160v133h160v-133z"/>
    <glyph glyph-name="exclamdown" unicode="¡" horiz-adv-x="292" d="M242 -205h-192l21 552h150zM228 442h-165v133h165v-133z"/>
    <glyph glyph-name="guillemotleft" unicode="«" horiz-adv-x="460" d="M227 271v43l153 135l50 -50l-121 -106l120 -105l-49 -51zM30 271v43l153 135l50 -50l-121 -106l120 -105l-49 -51z"/>
    <glyph glyph-name="guillemotright" unicode="»" horiz-adv-x="460" d="M277 137l-50 51l120 105l-120 106l50 50l153 -135v-42zM80 137l-50 51l120 105l-120 106l50 50l153 -135v-42z"/>
    <glyph glyph-name="ellipsis" unicode="…" horiz-adv-x="831" d="M30 133h165v-133h-165v133zM332 133h165v-133h-165v133zM636 133h165v-133h-165v133z"/>
    <glyph glyph-name="uni00A0" unicode=" " horiz-adv-x="339"/>
    <glyph glyph-name="Agrave" unicode="À" horiz-adv-x="696" d="M509 0q-8 39 -15.5 79t-15.5 80h-262q-9 -40 -17 -80t-16 -79h-174q35 190 86 384t111 378h285q60 -183 112 -377.5t84 -384.5h-178zM331 624q-25 -88 -47.5 -173.5t-42.5 -173.5h212q-20 88 -42 174t-46 173h-34zM196 879l29 98l235 -98l-19 -70z"/>
    <glyph glyph-name="Atilde" unicode="Ã" horiz-adv-x="696" d="M509 0q-8 39 -15.5 79t-15.5 80h-262q-9 -40 -17 -80t-16 -79h-174q35 190 86 384t111 378h285q60 -183 112 -377.5t84 -384.5h-178zM331 624q-25 -88 -47.5 -173.5t-42.5 -173.5h212q-20 88 -42 174t-46 173h-34zM506 893q-17 -26 -40.5 -36t-49.5 -10q-42 0 -75 9 t-65 9t-58 -25l-29 63q16 25 37.5 34t46.5 9q22 0 41 -3.5t36.5 -7t33.5 -7t31 -3.5q30 0 62 25z"/>
    <glyph glyph-name="Otilde" unicode="Õ" horiz-adv-x="724" d="M694 385q0 -116 -18 -193t-57.5 -123t-102.5 -64.5t-154 -18.5q-98 0 -162 18t-101.5 62.5t-53 119.5t-15.5 190q0 118 17.5 195t57 122t102.5 63t155 18q98 0 162.5 -18.5t102 -63.5t52.5 -120t15 -187zM196 376q0 -80 7.5 -129t26.5 -76t51 -36.5t81 -9.5q46 0 78 13 t51.5 43.5t28 80t8.5 123.5q0 79 -7.5 128t-26.5 76t-51 36.5t-81 9.5q-47 0 -79 -13t-51.5 -43t-27.5 -80t-8 -123zM520 893q-17 -26 -40.5 -36t-49.5 -10q-42 0 -75 9t-65 9t-58 -25l-29 63q16 25 37.5 34t46.5 9q22 0 41 -3.5t36.5 -7t33.5 -7t31 -3.5q30 0 62 25z"/>
    <glyph glyph-name="OE" unicode="Œ" horiz-adv-x="1067" d="M1009 463v-129h-313v-88q0 -78 43 -109h288v-137h-368q-42 17 -66 50q-40 -34 -97.5 -48.5t-133.5 -14.5q-98 0 -162 17.5t-101.5 62t-53 119.5t-15.5 190q0 118 17.5 195t57 122t102.5 63t155 18q118 0 184 -31v19h478v-139h-328v-160h313zM196 376q0 -80 7.5 -129 t26.5 -76t51 -36.5t81 -9.5q46 0 78 13t51.5 43.5t28 80t8.5 123.5q0 79 -7.5 128t-26.5 76t-51 36.5t-81 9.5q-47 0 -79 -13t-51.5 -43t-27.5 -80t-8 -123z"/>
    <glyph glyph-name="oe" unicode="œ" horiz-adv-x="909" d="M548 249q1 -44 6 -71t15.5 -42t27.5 -20.5t42 -5.5q60 0 109 13.5t91 30.5l23 -113q-45 -26 -104.5 -40.5t-113.5 -14.5q-72 0 -114 18t-62 50q-57 -68 -191 -68q-70 0 -117.5 13t-76 46t-41 88.5t-12.5 141.5q0 88 14.5 145t45 90t78 46t114.5 13q61 0 105 -11.5 t67 -36.5q36 23 92 35.5t117 12.5q62 0 103.5 -17t66.5 -49t35.5 -79t10.5 -107v-68h-331zM394 280q0 53 -5 85.5t-17 50.5t-32 24t-50 6q-28 0 -47.5 -8.5t-32 -28.5t-18 -53t-5.5 -81q0 -53 5 -85.5t17 -50t31.5 -23t49.5 -5.5q28 0 48 8t32.5 27.5t18 52t5.5 81.5z M662 454q-27 0 -53.5 -2.5t-49.5 -7.5q-4 -16 -7 -43t-5 -62h175q0 61 -11 88t-49 27z"/>
    <glyph glyph-name="endash" unicode="–" horiz-adv-x="715" d="M50 348h615v-123h-615v123z"/>
    <glyph glyph-name="emdash" unicode="—" horiz-adv-x="1013" d="M50 351h913v-123h-913v123z"/>
    <glyph glyph-name="quotedblleft" unicode="“" horiz-adv-x="433" d="M418 518l-87 -9q-38 61 -63.5 126.5t-40.5 135.5l156 15zM205 518l-86 -9q-75 122 -104 262l156 15z"/>
    <glyph glyph-name="quotedblright" unicode="”" horiz-adv-x="433" d="M261 786l157 -15q-15 -70 -41 -135.5t-64 -126.5l-86 9zM49 786l156 -15q-29 -140 -104 -262l-86 9z"/>
    <glyph glyph-name="quoteleft" unicode="‘" horiz-adv-x="221" d="M206 518l-87 -9q-38 61 -63.5 126.5t-40.5 135.5l156 15z"/>
    <glyph glyph-name="quoteright" unicode="’" horiz-adv-x="221" d="M49 786l157 -15q-15 -70 -41 -135.5t-64 -126.5l-86 9z"/>
    <glyph glyph-name="divide" unicode="÷" horiz-adv-x="568" d="M50 430h468v-99h-468v99zM221 263h135v-133h-135v133zM221 632h135v-133h-135v133z"/>
    <glyph glyph-name="ydieresis" unicode="ÿ" horiz-adv-x="568" d="M176 555q11 -103 27.5 -198t35.5 -192h67q29 91 52.5 191t38.5 199h164q-26 -130 -55 -241t-65 -205t-81 -172.5t-103 -144.5l-115 68q38 38 67 85t50 99h-147q-33 131 -58.5 256.5t-44.5 254.5h167v0zM139 739h104v-102h-104v102zM324 739h104v-102h-104v102z"/>
    <glyph glyph-name="Ydieresis" unicode="Ÿ" horiz-adv-x="647" d="M186 762q20 -94 44 -186.5t56 -188.5h77q32 96 55.5 188.5t43.5 186.5h176q-48 -196 -110.5 -386.5t-137.5 -375.5h-177q32 66 61.5 132.5t49.5 132.5h-160q-49 121 -86.5 244.5t-69.5 252.5h178zM179 946h104v-102h-104v102zM364 946h104v-102h-104v102z"/>
    <glyph glyph-name="fraction" unicode="⁄" horiz-adv-x="190" d="M-48 0h-116l420 758h118z"/>
    <glyph glyph-name="Euro" unicode="€" horiz-adv-x="643" d="M27 439h38q4 73 17 134t41.5 105t75.5 68.5t118 24.5q94 0 163 -12.5t117 -27.5l-55 -106q-45 11 -101.5 19t-125.5 8q-27 0 -46.5 -16.5t-32 -45.5t-19.5 -68t-9 -83h236l-61 -115h-175q4 -42 11.5 -81.5t22.5 -70t38 -49t59 -18.5q32 0 65 4.5t63.5 11t58 15.5t48.5 18 l27 -110q-20 -10 -47.5 -20.5t-60.5 -18.5t-70.5 -13.5t-77.5 -5.5q-80 0 -132 26.5t-83.5 72.5t-45.5 107.5t-18 131.5h-59z"/>
    <glyph glyph-name="guilsinglleft" unicode="‹" horiz-adv-x="263" d="M30 271v43l153 135l50 -50l-121 -106l120 -105l-49 -51z"/>
    <glyph glyph-name="guilsinglright" unicode="›" horiz-adv-x="263" d="M80 137l-50 51l120 105l-120 106l50 50l153 -135v-42z"/>
    <glyph glyph-name="fi" unicode="ﬁ" horiz-adv-x="554" d="M348 446h-140v-446h-159v446h-38v68l38 36v110q0 43 16.5 70t48 43t77 22t104.5 6q44 0 81 -5t66.5 -12.5t51.5 -16.5t35 -16l-23 -123q-38 29 -92 44.5t-106 15.5q-54 0 -77 -11.5t-23 -50.5v-71h299v-555h-159v446z"/>
    <glyph glyph-name="fl" unicode="ﬂ" horiz-adv-x="557" d="M348 682q-24 6 -64 6q-42 0 -59 -11.5t-17 -50.5v-71h83v-109h-83v-446h-159v446h-38v68l38 36v110q0 43 16.5 70t46.5 43t72.5 22t94.5 6q31 0 66.5 -3.5t68 -9.5t57.5 -13t36 -13v-762h-159v682z"/>
    <glyph glyph-name="daggerdbl" unicode="‡" horiz-adv-x="576" d="M320 824l23 -168l179 -24v-56l-178 -24v-325l182 -22v-57l-183 -23l-23 -169h-65l-24 169l-178 23v57l177 22v325l-180 28v57l181 19l24 168h65z"/>
    <glyph glyph-name="periodcentered" unicode="·" horiz-adv-x="227" d="M30 403h165v-133h-165v133z"/>
    <glyph glyph-name="quotesinglbase" unicode="‚" horiz-adv-x="221" d="M49 125l157 -15q-15 -70 -41 -135t-64 -126l-86 9z"/>
    <glyph glyph-name="quotedblbase" unicode="„" horiz-adv-x="433" d="M261 125l157 -15q-15 -70 -41 -135t-64 -126l-86 9zM49 125l156 -15q-29 -140 -104 -261l-86 9z"/>
    <glyph glyph-name="perthousand" unicode="‰" horiz-adv-x="1152" d="M946 76q32 0 45.5 26.5t13.5 71.5q0 48 -13.5 74.5t-45.5 26.5t-46 -26t-14 -74q0 -46 14 -72.5t46 -26.5zM606 76q31 0 45 26.5t14 71.5q0 48 -13.5 74.5t-45.5 26.5t-46 -26t-14 -74q0 -46 14 -72.5t46 -26.5zM207 489q32 0 45.5 26.5t13.5 71.5q0 46 -13.5 73 t-45.5 27t-46 -26.5t-14 -72.5t14 -72.5t46 -26.5zM215 0h-98q118 191 238.5 382.5t241.5 382.5h99zM788 174q0 88 37 135t121 47t120 -47t36 -135q0 -81 -37 -130t-119 -49q-83 0 -120.5 49t-37.5 130zM50 588q0 86 36.5 133t120.5 47t120.5 -46t36.5 -134 q0 -84 -37 -132.5t-120 -48.5q-84 0 -120.5 49t-36.5 132zM448 174q0 88 37 135t121 47t120 -47t36 -135q0 -81 -37 -130t-119 -49q-83 0 -120.5 49t-37.5 130z"/>
    <glyph glyph-name="Acircumflex" unicode="Â" horiz-adv-x="696" d="M509 0q-8 39 -15.5 79t-15.5 80h-262q-9 -40 -17 -80t-16 -79h-174q35 190 86 384t111 378h285q60 -183 112 -377.5t84 -384.5h-178zM331 624q-25 -88 -47.5 -173.5t-42.5 -173.5h212q-20 88 -42 174t-46 173h-34zM460 819l-114 84l-112 -84l-48 48l120 108h80l123 -108z "/>
    <glyph glyph-name="Ecircumflex" unicode="Ê" horiz-adv-x="600" d="M541 463v-129h-323v-88q0 -39 11.5 -66t31.5 -43h299v-137h-379q-131 56 -131 240v522h507v-139h-339v-160h323zM412 819l-114 84l-112 -84l-48 48l120 108h80l123 -108z"/>
    <glyph glyph-name="Aacute" unicode="Á" horiz-adv-x="696" d="M509 0q-8 39 -15.5 79t-15.5 80h-262q-9 -40 -17 -80t-16 -79h-174q35 190 86 384t111 378h285q60 -183 112 -377.5t84 -384.5h-178zM331 624q-25 -88 -47.5 -173.5t-42.5 -173.5h212q-20 88 -42 174t-46 173h-34zM500 879l-246 -69l-18 70l234 97z"/>
    <glyph glyph-name="Edieresis" unicode="Ë" horiz-adv-x="600" d="M541 463v-129h-323v-88q0 -39 11.5 -66t31.5 -43h299v-137h-379q-131 56 -131 240v522h507v-139h-339v-160h323zM155 946h104v-102h-104v102zM340 946h104v-102h-104v102z"/>
    <glyph glyph-name="Egrave" unicode="È" horiz-adv-x="600" d="M541 463v-129h-323v-88q0 -39 11.5 -66t31.5 -43h299v-137h-379q-131 56 -131 240v522h507v-139h-339v-160h323zM158 879l29 98l235 -98l-19 -70z"/>
    <glyph glyph-name="Iacute" unicode="Í" horiz-adv-x="268" d="M50 762h168v-762h-168v762zM287 879l-246 -69l-18 70l234 97z"/>
    <glyph glyph-name="Icircumflex" unicode="Î" horiz-adv-x="268" d="M50 762h168v-762h-168v762zM248 819l-114 84l-112 -84l-48 48l120 108h80l123 -108z"/>
    <glyph glyph-name="Idieresis" unicode="Ï" horiz-adv-x="268" d="M50 762h168v-762h-168v762zM-9 946h104v-102h-104v102zM176 946h104v-102h-104v102z"/>
    <glyph glyph-name="Igrave" unicode="Ì" horiz-adv-x="268" d="M50 762h168v-762h-168v762zM-17 879l29 98l235 -98l-19 -70z"/>
    <glyph glyph-name="Oacute" unicode="Ó" horiz-adv-x="724" d="M694 385q0 -116 -18 -193t-57.5 -123t-102.5 -64.5t-154 -18.5q-98 0 -162 18t-101.5 62.5t-53 119.5t-15.5 190q0 118 17.5 195t57 122t102.5 63t155 18q98 0 162.5 -18.5t102 -63.5t52.5 -120t15 -187zM196 376q0 -80 7.5 -129t26.5 -76t51 -36.5t81 -9.5q46 0 78 13 t51.5 43.5t28 80t8.5 123.5q0 79 -7.5 128t-26.5 76t-51 36.5t-81 9.5q-47 0 -79 -13t-51.5 -43t-27.5 -80t-8 -123zM514 879l-246 -69l-18 70l234 97z"/>
    <glyph glyph-name="Ocircumflex" unicode="Ô" horiz-adv-x="724" d="M694 385q0 -116 -18 -193t-57.5 -123t-102.5 -64.5t-154 -18.5q-98 0 -162 18t-101.5 62.5t-53 119.5t-15.5 190q0 118 17.5 195t57 122t102.5 63t155 18q98 0 162.5 -18.5t102 -63.5t52.5 -120t15 -187zM196 376q0 -80 7.5 -129t26.5 -76t51 -36.5t81 -9.5q46 0 78 13 t51.5 43.5t28 80t8.5 123.5q0 79 -7.5 128t-26.5 76t-51 36.5t-81 9.5q-47 0 -79 -13t-51.5 -43t-27.5 -80t-8 -123zM474 819l-114 84l-112 -84l-48 48l120 108h80l123 -108z"/>
    <glyph glyph-name="Ograve" unicode="Ò" horiz-adv-x="724" d="M694 385q0 -116 -18 -193t-57.5 -123t-102.5 -64.5t-154 -18.5q-98 0 -162 18t-101.5 62.5t-53 119.5t-15.5 190q0 118 17.5 195t57 122t102.5 63t155 18q98 0 162.5 -18.5t102 -63.5t52.5 -120t15 -187zM196 376q0 -80 7.5 -129t26.5 -76t51 -36.5t81 -9.5q46 0 78 13 t51.5 43.5t28 80t8.5 123.5q0 79 -7.5 128t-26.5 76t-51 36.5t-81 9.5q-47 0 -79 -13t-51.5 -43t-27.5 -80t-8 -123zM210 879l29 98l235 -98l-19 -70z"/>
    <glyph glyph-name="Uacute" unicode="Ú" horiz-adv-x="678" d="M628 98q-38 -54 -111 -83t-169 -29q-69 0 -124 8.5t-94 31.5t-59.5 63t-20.5 102v571h168v-554q0 -29 10 -45.5t26.5 -25t38.5 -10.5t45 -2q32 0 61 7.5t61 28.5v601h168v-664zM491 879l-246 -69l-18 70l234 97z"/>
    <glyph glyph-name="Ucircumflex" unicode="Û" horiz-adv-x="678" d="M628 98q-38 -54 -111 -83t-169 -29q-69 0 -124 8.5t-94 31.5t-59.5 63t-20.5 102v571h168v-554q0 -29 10 -45.5t26.5 -25t38.5 -10.5t45 -2q32 0 61 7.5t61 28.5v601h168v-664zM451 819l-114 84l-112 -84l-48 48l120 108h80l123 -108z"/>
    <glyph glyph-name="Ugrave" unicode="Ù" horiz-adv-x="678" d="M628 98q-38 -54 -111 -83t-169 -29q-69 0 -124 8.5t-94 31.5t-59.5 63t-20.5 102v571h168v-554q0 -29 10 -45.5t26.5 -25t38.5 -10.5t45 -2q32 0 61 7.5t61 28.5v601h168v-664zM187 879l29 98l235 -98l-19 -70z"/>
    <glyph glyph-name="dotlessi" unicode="ı" horiz-adv-x="260" d="M50 555h160v-555h-160v555z"/>
    <glyph glyph-name="circumflex" unicode="ˆ" horiz-adv-x="423" d="M324 612l-114 84l-112 -84l-48 48l120 108h80l123 -108z"/>
    <glyph glyph-name="tilde" unicode="˜" horiz-adv-x="417" d="M367 686q-17 -26 -40.5 -36t-49.5 -10q-42 0 -75 9t-65 9t-58 -25l-29 63q16 25 37.5 34t46.5 9q22 0 41 -3.5t36.5 -7t33.5 -7t31 -3.5q30 0 62 25z"/>
    <glyph glyph-name="ring" unicode="˚" horiz-adv-x="346" d="M166 521q-39 0 -62 6.5t-35 21t-15.5 36.5t-3.5 54v12q0 33 6.5 54t21.5 32.5t40 15.5t62 4q39 0 62 -6.5t35 -21t15.5 -37t3.5 -53.5v-12q0 -33 -6.5 -54t-21.5 -32.5t-40 -15.5t-62 -4zM173 692q-19 0 -30 -2.5t-16 -8t-6.5 -15t-1.5 -23.5v-8q0 -18 3 -28t9 -14.5 t16 -5.5t25 -1q19 0 30.5 2.5t16.5 8t6.5 15t1.5 23.5v8q0 18 -3 28t-9.5 14.5t-16.5 5.5t-25 1z"/>
    <glyph glyph-name="cedilla" unicode="¸" horiz-adv-x="245" d="M60 -194q8 54 14.5 105.5t11.5 108.5h119q-1 -20 -3 -37t-4 -33q-35 -88 -88 -162z"/>
    <glyph glyph-name="caron" unicode="ˇ" horiz-adv-x="423" d="M99 769l115 -83l111 83l48 -48l-120 -108h-80l-123 108z"/>
    <glyph glyph-name=".null" horiz-adv-x="0"/>
    <glyph glyph-name="NULL" horiz-adv-x="0"/>
    <glyph glyph-name="ffi" unicode="ﬃ" horiz-adv-x="822" d="M775 0h-159v446h-140v-446h-159v446h-109v-446h-159v446h-38v68l38 36v90q0 43 18 70.5t46.5 43.5t63.5 22.5t68 6.5q31 0 60.5 -6.5t50.5 -17.5q18 13 42.5 21.5t52 13t56.5 6t56 1.5q44 0 81 -5t66.5 -12.5t51 -16.5t35.5 -16l-23 -123q-38 29 -92 44.5t-106 15.5 q-54 0 -77 -11.5t-23 -50.5v-71h299v-555zM208 555h109v108q-11 3 -23.5 5.5t-26.5 2.5q-26 0 -42.5 -13t-16.5 -52v-51z"/>
    <glyph glyph-name="ffl" unicode="ﬄ" horiz-adv-x="826" d="M616 682q-24 6 -63 6q-42 0 -59.5 -11.5t-17.5 -50.5v-71h83v-109h-83v-446h-159v446h-109v-446h-159v446h-38v68q9 9 18.5 18t19.5 18v90q0 43 18 70.5t46.5 43.5t63.5 22.5t68 6.5q31 0 60.5 -6.5t50.5 -17.5q35 26 87 34t104 8q31 0 66.5 -4t68 -9.5t58 -12.5 t36.5 -13v-762h-160v682zM208 555h109v108q-11 3 -23.5 5.5t-26.5 2.5q-26 0 -42.5 -13t-16.5 -52v-51z"/>
    <glyph glyph-name="ff" unicode="ﬀ" horiz-adv-x="589" d="M317 0v446h-109v-446h-159v446h-38v68l38 36v90q0 43 18 70.5t46.5 43.5t63.5 22.5t68 6.5q31 0 60.5 -6.5t50.5 -17.5q26 24 65 33t81 9q26 0 52.5 -5t46.5 -13l-18 -105q-26 10 -66 10q-19 0 -30 -11.5t-11 -50.5v-71h104v-109h-104v-446h-159zM208 555h109v108 q-11 3 -23.5 5.5t-26.5 2.5q-26 0 -42.5 -13t-16.5 -52v-51z"/>
    <glyph glyph-name="uni2117" unicode="℗" horiz-adv-x="722" d="M692 385q0 -108 -22.5 -184t-65 -124t-104 -69.5t-139.5 -21.5q-92 0 -155 23t-102 70.5t-56.5 121t-17.5 175.5q0 108 22.5 184t65 124t104 69.5t139.5 21.5q91 0 154.5 -23t102.5 -70.5t56.5 -121t17.5 -175.5zM113 375q0 -99 14.5 -161t44.5 -96t77 -46t112 -12 q60 0 106 16.5t77.5 54.5t48 100.5t16.5 154.5q0 99 -14.5 161t-44.5 96t-77 46t-112 12q-60 0 -106.5 -16.5t-78 -54.5t-47.5 -100.5t-16 -154.5zM218 583q32 8 76 12t83 4q29 0 53.5 -4.5t42 -17t27.5 -34.5t10 -56q0 -28 -6 -52t-23 -42t-47 -28t-77 -10h-64v-178h-75 v406zM382 532q-33 0 -52 -1.5t-37 -5.5v-109h55q48 0 69.5 12.5t21.5 45.5q0 29 -13.5 43.5t-43.5 14.5z"/>
    <glyph glyph-name="ft" horiz-adv-x="608" d="M498 683v-128h87v-109h-87v-302q0 -32 26 -32q11 0 23.5 5t23.5 11l23 -102q-36 -23 -66 -31.5t-66 -8.5q-123 0 -123 110v350h-131v-446h-159v446h-38v68l38 36v110q0 43 15.5 70t41.5 43t59.5 22t68.5 6q26 0 52.5 -5t46.5 -13l-18 -105q-27 10 -66 10q-19 0 -30 -11.5 t-11 -50.5v-71h131v128h159z"/>
    <glyph glyph-name="fft" horiz-adv-x="873" d="M356 759q27 25 65.5 33.5t80.5 8.5q26 0 52.5 -5t46.5 -13l-18 -105q-26 10 -66 10q-19 0 -30 -11.5t-11 -50.5v-71h128v128h160v-128h86v-109h-86v-302q0 -32 25 -32q11 0 24 5t23 11l23 -102q-35 -23 -65 -31t-66 -8q-124 0 -124 109v350h-128v-446h-159v446h-109v-446 h-159v446h-38v68l38 36v90q0 43 18 70.5t46.5 43.5t63.5 22.5t68 6.5q31 0 60.5 -6.5t50.5 -17.5zM208 555h109v108q-11 3 -23.5 5.5t-26.5 2.5q-26 0 -42.5 -13t-16.5 -52v-51z"/>
    <glyph glyph-name="rt" horiz-adv-x="625" d="M516 683v-128h86v-109h-86v-302q0 -32 25 -32q11 0 24 5t23 11l23 -102q-35 -23 -65 -31.5t-66 -8.5q-124 0 -124 110v346q-40 -1 -81 -10t-66 -21v-411h-159v483q36 20 75.5 33.5t79.5 22t78 12.5t73 6v126h160z"/>
    </font>
</defs>
</svg>
